<?xml version="1.0" encoding="UTF-8" standalone="no"?>
<!-- Created with Inkscape (http://www.inkscape.org/) -->

<svg
   version="1.1"
   id="svg1"
   width="480"
   height="672"
   viewBox="0 0 480 672"
   xmlns="http://www.w3.org/2000/svg"
   xmlns:svg="http://www.w3.org/2000/svg">
  <defs
     id="defs1" />
  <g
     id="g1">
    <g
       id="g841"
       style="display:inline">
      <g
         id="g1426"
         style="display:inline">
        <path
           style="display:inline;fill:#333333;fill-opacity:1"
           d="m 25.598139,619.6868 c 0.21399,-23.24412 0.539095,-89.04171 0.722456,-146.21688 0.183361,-57.17517 0.498531,-131.78949 0.700378,-165.80961 l 0.366995,-61.85475 1.281598,-4.53386 c 1.26241,-4.46597 3.133921,-9.40581 3.803483,-10.03925 0.188271,-0.17812 1.364187,-2.36409 2.613145,-4.85771 2.122879,-4.23845 4.323831,-7.12434 8.576056,-11.24492 2.561706,-2.48239 3.630283,-3.3278 4.210549,-3.33118 0.282695,-0.002 1.40702,-0.8387 2.4985,-1.86011 1.09148,-1.02141 2.697284,-2.07053 3.568453,-2.33137 0.871169,-0.26085 2.299644,-0.92628 3.17439,-1.47874 0.874746,-0.55246 2.918496,-1.34182 4.541667,-1.75413 l 2.95122,-0.74966 0.187943,-4.89322 0.187944,-4.89322 -2.458777,-1.0883 c -4.068143,-1.80063 -4.267625,-1.97812 -5.179973,-4.60884 l -0.879189,-2.53511 2.149425,2.34259 c 2.13631,2.32829 5.564123,3.76373 9.005057,3.77098 2.190722,0.005 2.502451,0.89918 2.502451,7.18122 0,3.84141 -0.217066,5.12858 -0.864873,5.12858 -2.09414,0 -13.242138,4.05989 -16.001225,5.82735 -1.669908,1.06974 -3.245829,1.94497 -3.502047,1.94497 -0.495453,0 -8.828285,8.14953 -8.828285,8.63408 0,0.15731 -1.137849,1.99514 -2.528553,4.08407 -4.482121,6.73243 -7.366864,15.1217 -8.098857,23.5527 -0.201036,2.31551 -0.537766,71.53778 -0.74829,153.82728 -0.210524,82.28949 -0.641814,173.94247 -0.958422,203.67328 -0.39745,37.32211 -0.366542,54.30754 0.09984,54.86853 0.424628,0.51077 2.882105,0.8916 6.617089,1.02546 l 5.941594,0.21294 -8.020409,0.13442 -8.020409,0.13443 z m 195.696401,41.61255 c -113.91222,-0.21134 -150.684525,-0.41251 -104.78275,-0.57322 98.63058,-0.34533 292.95626,-0.17556 314.02383,0.27433 10.53839,0.22505 17.87214,0.13147 18.40709,-0.23488 0.75189,-0.51491 0.77592,-14.95083 0.15561,-93.46654 -0.4035,-51.07167 -0.76394,-122.87818 -0.80099,-159.57004 -0.0371,-36.69185 -0.27808,-88.86358 -0.53561,-115.93718 l -0.46824,-49.22473 -1.39206,-4.48933 c -0.76564,-2.46913 -1.6895,-4.78625 -2.05304,-5.14917 -0.36354,-0.36291 -0.66098,-1.18447 -0.66098,-1.82568 0,-0.64122 -0.29196,-1.16585 -0.64881,-1.16585 -0.35684,0 -0.64881,-0.34681 -0.64881,-0.77068 0,-2.60075 -10.11075,-16.06936 -12.0631,-16.06936 -0.5022,0 -0.91309,-0.30182 -0.91309,-0.67071 0,-0.36889 -1.28167,-1.21916 -2.84816,-1.88948 -1.5665,-0.67032 -3.04355,-1.53435 -3.28234,-1.92006 -0.2388,-0.38572 -0.93914,-0.7013 -1.55632,-0.7013 -0.61718,0 -2.26237,-0.58032 -3.65598,-1.2896 -1.3936,-0.70928 -3.57208,-1.45473 -4.84105,-1.65655 -5.30336,-0.84347 -5.22726,-0.79419 -5.22122,-3.3812 0.0101,-4.3324 0.82153,-9.32753 1.55138,-9.55036 0.3926,-0.11986 2.14833,-0.41042 3.90163,-0.64568 3.37803,-0.45327 5.41496,-2.11834 9.78837,-8.00144 1.07054,-1.44008 2.18994,-2.63182 2.48756,-2.64832 0.29762,-0.0165 -0.30563,1.06299 -1.34054,2.39886 -1.03492,1.33587 -2.67756,3.8133 -3.65032,5.5054 -0.97276,1.6921 -2.1943,3.07654 -2.71452,3.07654 -0.52023,0 -0.94587,0.29147 -0.94587,0.6477 0,0.35623 -0.69867,0.64769 -1.55261,0.64769 -1.92447,0 -2.34025,1.03183 -2.34025,5.80773 0,3.28025 0.20357,3.89185 1.5992,4.80473 0.87956,0.57532 2.02321,1.04603 2.54145,1.04603 1.77854,0 6.87932,2.54143 10.34808,5.15586 1.9093,1.43906 3.64773,2.61647 3.86318,2.61647 1.76643,0 12.60427,13.83083 13.80264,17.61438 0.26,0.82092 1.27933,3.24136 2.26517,5.37875 0.98584,2.13739 2.15377,4.90628 2.59541,6.15309 0.93328,2.63479 1.01717,10.98658 1.55163,154.47497 0.20169,54.1472 0.5589,136.1249 0.7938,182.17267 l 0.4271,83.72322 -27.84174,-0.17072 c -15.31296,-0.0939 -106.81809,-0.31725 -203.34473,-0.49634 z M 20.851421,124.20105 20.812384,5.8350078 H 127.80522 234.79805 l -0.314,1.1986973 c -0.17271,0.6592835 -1.30763,2.3351912 -2.52205,3.7242389 -1.21443,1.389048 -2.21365,2.705907 -2.22049,2.926353 -0.007,0.220445 -1.61825,2.016701 -3.5809,3.991679 -1.96265,1.974977 -3.56845,3.907714 -3.56845,4.294969 0,0.387256 -0.28155,0.704101 -0.62566,0.704101 -0.34412,0 -2.73113,2.040236 -5.30447,4.533857 -2.57335,2.493621 -4.90122,4.533856 -5.17304,4.533856 -0.27183,0 -1.89933,1.599365 -3.61666,3.554143 -1.71734,1.954779 -3.42224,3.557821 -3.78866,3.562316 -0.36643,0.0045 -1.82625,1.164434 -3.24405,2.577643 -1.4178,1.413208 -2.84223,2.579057 -3.16539,2.590775 -0.32316,0.01172 -1.49102,0.696035 -2.59524,1.520704 -1.10422,0.82467 -5.07329,3.049973 -8.82017,4.945118 -3.74688,1.895146 -7.10446,3.662173 -7.46131,3.926728 -0.35684,0.264555 -1.37872,0.700506 -2.27083,0.968781 -1.66682,0.501244 -10.05148,4.123687 -17.51786,7.568281 -2.3195,1.070092 -6.407,2.760227 -9.08333,3.755856 -11.22435,4.175587 -18.5261,7.278379 -21.02278,8.933374 -1.46232,0.969348 -3.99319,2.436308 -5.62415,3.259911 -1.63095,0.823603 -4.11265,2.523693 -5.51488,3.777977 -1.40223,1.254284 -3.31763,2.682214 -4.25645,3.173178 -0.93882,0.490963 -2.45278,1.777516 -3.36436,2.859005 -0.91158,1.08149 -1.88715,1.966345 -2.16792,1.966345 -0.42718,0 -3.59871,3.21535 -11.180192,11.334646 -0.66527,0.71246 -2.304987,2.89843 -3.643816,4.8577 -1.338828,1.95927 -2.95719,4.14524 -3.596358,4.8577 -2.130551,2.37487 -6.321422,10.93877 -8.367313,17.09832 -2.292214,6.90115 -4.040978,14.59078 -5.21847,22.94654 l -0.805651,5.71709 -17.605442,-0.1052 c -9.682993,-0.0579 -19.359132,-0.0803 -21.502531,-0.0498 l -3.897088,0.0554 -0.806781,2.58058 c -1.584614,5.06856 -0.401257,14.57176 2.129039,17.09771 0.526371,0.52546 0.957038,1.17786 0.957038,1.44977 0,1.27273 5.590855,5.48319 8.928501,6.72404 4.184158,1.55557 5.989544,3.35163 8.209854,8.16746 0.839589,1.82105 2.119554,3.72567 2.844368,4.23248 l 1.317842,0.92146 -4.162187,1.89843 c -2.289203,1.04413 -4.162187,2.12701 -4.162187,2.40638 0,0.27937 -0.315819,0.50795 -0.70182,0.50795 -1.079159,0 -6.299427,4.31461 -10.976752,9.07241 -3.165757,3.22022 -5.012719,5.8942 -7.407596,10.7245 -4.601826,9.28158 -4.903474,10.00405 -6.232799,14.92814 l -1.204152,4.46043 z M 456.16359,240.19042 c 0,-1.9244 -4.5463,-14.13952 -5.26254,-14.13952 -0.31721,0 -0.57674,-0.44881 -0.57674,-0.99735 0,-1.16921 -2.33049,-5.9066 -3.0645,-6.22946 -0.27717,-0.12192 -0.9419,-0.99248 -1.47717,-1.93457 -1.34229,-2.3625 -5.64108,-6.9041 -9.10732,-9.62174 -1.59025,-1.24681 -3.3977,-2.69127 -4.01654,-3.2099 -0.61884,-0.51863 -3.13921,-1.98688 -5.60082,-3.26276 l -4.47566,-2.3198 1.81172,-1.8086 c 0.99644,-0.99472 2.18126,-3.05802 2.63293,-4.5851 0.63247,-2.13836 1.50594,-3.24296 3.80036,-4.80597 1.63854,-1.11621 3.4221,-2.02946 3.96348,-2.02946 0.54137,0 1.99517,-0.86254 3.23065,-1.91676 1.23547,-1.05422 2.601,-1.92861 3.0345,-1.94308 0.43351,-0.0145 1.13413,-0.68212 1.55696,-1.48364 0.42282,-0.80152 0.99444,-1.60631 1.27026,-1.78842 0.80843,-0.53376 2.63412,-5.84322 3.39029,-9.85961 0.58339,-3.09868 0.51234,-4.30553 -0.42896,-7.28656 l -1.12816,-3.57277 -2.39988,-0.0896 c -1.31993,-0.0493 -11.08582,-0.0155 -21.70196,0.0751 l -19.30209,0.16478 v -1.95386 c 0,-4.18808 -2.85294,-18.9087 -4.48324,-23.13263 -0.27499,-0.71246 -1.17784,-3.33562 -2.00634,-5.82924 -1.41076,-4.2461 -4.92502,-11.90655 -5.79408,-12.63003 -0.59305,-0.49371 -3.48983,-4.1695 -4.58539,-5.81851 -3.49167,-5.25556 -7.62204,-10.370778 -9.94552,-12.316916 -2.83386,-2.373637 -4.87406,-4.255272 -9.19436,-8.479765 -1.42738,-1.395728 -2.8872,-2.541225 -3.24405,-2.545548 -0.35684,-0.0043 -1.30722,-0.701249 -2.11195,-1.548722 -1.30523,-1.374555 -6.71168,-4.705113 -14.98897,-9.233712 -3.30693,-1.809262 -9.59921,-4.100004 -11.26201,-4.100004 -0.63684,0 -1.1579,-0.267356 -1.1579,-0.594125 0,-0.326768 -1.38683,-1.090925 -3.08185,-1.698126 -4.93583,-1.768151 -13.26412,-5.328058 -22.09608,-9.444918 -2.96407,-1.381652 -5.95671,-2.512095 -6.65029,-2.512095 -0.69359,0 -1.26107,-0.291462 -1.26107,-0.647693 0,-0.356232 -0.32255,-0.647694 -0.71679,-0.647694 -0.39423,0 -2.21901,-0.771909 -4.05506,-1.715353 -1.83605,-0.943444 -4.50613,-2.294353 -5.93351,-3.002021 -1.42738,-0.707667 -3.8157,-2.121725 -5.30737,-3.14235 -1.49168,-1.020626 -2.9515,-1.862256 -3.24405,-1.87029 -0.29255,-0.008 -2.13771,-1.460519 -4.10036,-3.227743 -1.96265,-1.767225 -4.07939,-3.383335 -4.70387,-3.591356 -0.62448,-0.20802 -1.13542,-0.601463 -1.13542,-0.874317 0,-0.272854 -0.88402,-1.346196 -1.9645,-2.385205 -4.12642,-3.968053 -9.57126,-9.04291 -10.43523,-9.726155 -0.49548,-0.391829 -1.85683,-1.776274 -3.02523,-3.076545 -1.1684,-1.300271 -2.40925,-2.36413 -2.75744,-2.36413 -0.34819,0 -0.63308,-0.437193 -0.63308,-0.97154 0,-0.534348 -0.43794,-0.971541 -0.97321,-0.971541 -0.53527,0 -0.97321,-0.289245 -0.97321,-0.642767 0,-0.578139 -1.62765,-2.723698 -3.68307,-4.855021 -1.00824,-1.045468 -3.44833,-5.0575475 -3.45141,-5.6749299 -0.001,-0.2671736 48.0257,-0.4857703 106.72674,-0.4857703 H 456.8124 V 123.71528 c 0,64.83415 -0.14598,117.88027 -0.3244,117.88027 -0.17842,0 -0.32441,-0.63231 -0.32441,-1.40513 z M 55.8481,184.92234 c 0,-0.17812 0.145982,-0.32385 0.324405,-0.32385 0.178422,0 0.324404,0.14573 0.324404,0.32385 0,0.17812 -0.145982,0.32385 -0.324404,0.32385 -0.178423,0 -0.324405,-0.14573 -0.324405,-0.32385 z m -1.549444,-1.81925 c -1.910194,-1.20303 -4.544018,-3.68722 -3.897976,-3.67651 0.319742,0.005 1.749205,1.01447 3.176586,2.24261 2.646208,2.27683 2.91819,2.81744 0.72139,1.4339 z m 372.344104,-3.03845 c 0.22054,-0.35623 0.54697,-0.6477 0.72539,-0.6477 0.17842,0 0.14396,0.29147 -0.0766,0.6477 -0.22054,0.35623 -0.54697,0.64769 -0.72539,0.64769 -0.17842,0 -0.14396,-0.29146 0.0766,-0.64769 z M 45.791552,178.21251 c -5.040646,-3.10658 -7.559654,-6.60913 -8.450107,-11.74944 l -0.392698,-2.26693 22.034034,0.22553 22.034034,0.22554 0.716238,-3.33396 c 0.393931,-1.83368 0.716239,-4.36682 0.716239,-5.62919 0,-2.85806 2.289566,-14.2089 3.831835,-18.99685 0.634309,-1.96921 1.556018,-4.89195 2.048242,-6.49499 0.492224,-1.60305 1.896462,-4.6634 3.12053,-6.80079 1.224067,-2.13739 2.755149,-4.94407 3.402403,-6.23707 1.306957,-2.61086 3.245764,-3.9135 2.694907,-1.81064 -0.179652,0.68581 -0.549132,1.24693 -0.821065,1.24693 -0.271933,0 -0.857231,0.87438 -1.300661,1.94308 -0.443431,1.06869 -1.026285,1.94308 -1.295232,1.94308 -0.268947,0 -0.667562,0.8913 -0.885811,1.98067 -0.218249,1.08937 -0.838673,2.42177 -1.37872,2.96088 -0.540048,0.53912 -0.981904,1.50664 -0.981904,2.15004 0,0.6434 -0.437947,1.53265 -0.973215,1.97612 -0.535267,0.44347 -0.973214,1.44098 -0.973214,2.2167 0,0.77571 -0.246176,1.68728 -0.547059,2.0257 -0.720562,0.81045 -2.540284,6.90416 -3.278409,10.97841 -0.32269,1.78115 -0.794391,7.10034 -1.048226,11.82041 l -0.461517,8.58194 H 63.25987 42.917564 l -0.671637,1.25281 c -1.721448,3.21102 0.386911,8.32077 4.578776,11.09697 3.093243,2.0486 2.170423,2.66943 -1.033151,0.69505 z m 384.172008,0.21301 c 2.32907,-1.01968 5.26877,-4.26252 5.80787,-6.40679 0.20315,-0.80802 0.27606,-2.6072 0.16201,-3.99817 l -0.20735,-2.52903 -20.9241,-0.1709 -20.92411,-0.1709 0.0773,-8.57297 0.0773,-8.57297 0.86559,4.21001 c 0.47608,2.31551 0.87922,5.38388 0.89588,6.8186 0.0167,1.43472 0.50153,3.28022 1.0775,4.10111 l 1.04721,1.49254 21.33707,-0.21495 21.33707,-0.21496 -0.029,1.29539 c -0.0159,0.71246 -0.38105,2.61584 -0.81136,4.22973 -0.8812,3.30498 -4.55492,7.09195 -8.45996,8.72078 -2.90658,1.21236 -4.10197,1.19749 -1.329,-0.0165 z m -36.969,-33.17442 c -0.17707,-0.62341 -0.68413,-2.82268 -1.12681,-4.88727 -0.44267,-2.06459 -1.04738,-3.90343 -1.34379,-4.08631 -0.29642,-0.18288 -0.53894,-0.90715 -0.53894,-1.60948 0,-1.17482 -6.02255,-14.14294 -7.93276,-17.08132 -2.05657,-3.16351 -3.73385,-6.17762 -3.43769,-6.17762 0.71415,0 7.18083,10.51725 9.35873,15.2208 1.52407,3.29149 4.99541,14.13846 5.54476,17.32581 0.42542,2.46833 0.0638,3.36311 -0.5235,1.29539 z M 99.31834,111.08525 c 0,-0.17812 0.145982,-0.32385 0.324405,-0.32385 0.178422,0 0.324405,0.14573 0.324405,0.32385 0,0.17811 -0.145983,0.32385 -0.324405,0.32385 -0.178423,0 -0.324405,-0.14574 -0.324405,-0.32385 z m 277.04168,-1.61924 c 0,-0.35623 0.29196,-0.64769 0.64881,-0.64769 0.35684,0 0.64881,0.29146 0.64881,0.64769 0,0.35624 -0.29197,0.6477 -0.64881,0.6477 -0.35685,0 -0.64881,-0.29146 -0.64881,-0.6477 z m -1.56821,-1.85615 c -0.27948,-0.45144 -0.33294,-0.99572 -0.11878,-1.20951 0.58066,-0.57966 1.21377,0.27288 0.90015,1.21212 -0.21977,0.65817 -0.37259,0.65766 -0.78137,-0.003 z m -271.28148,-2.00214 c 1.41324,-1.55892 1.7371,-1.66282 1.25236,-0.40179 -0.19481,0.5068 -0.8262,1.10227 -1.40308,1.32326 -0.86169,0.33009 -0.8348,0.16565 0.15072,-0.92147 z m 268.95683,-0.99941 c 0,-0.17812 0.14598,-0.32385 0.32441,-0.32385 0.17842,0 0.3244,0.14573 0.3244,0.32385 0,0.17812 -0.14598,0.32385 -0.3244,0.32385 -0.17843,0 -0.32441,-0.14573 -0.32441,-0.32385 z m -266.33632,-1.61923 c 0.22054,-0.35624 0.54697,-0.6477 0.72539,-0.6477 0.17842,0 0.14396,0.29146 -0.0766,0.6477 -0.22054,0.35623 -0.54697,0.64769 -0.72539,0.64769 -0.17842,0 -0.14396,-0.29146 0.0766,-0.64769 z m 12.00298,-11.334645 c 0,-0.178116 0.14598,-0.323847 0.3244,-0.323847 0.17842,0 0.32441,0.145731 0.32441,0.323847 0,0.178116 -0.14599,0.323847 -0.32441,0.323847 -0.17842,0 -0.3244,-0.145731 -0.3244,-0.323847 z m 6.48809,-4.857704 c 0,-0.474975 0.19465,-0.669283 0.43254,-0.431796 0.2379,0.237488 0.2379,0.626104 0,0.863592 -0.23789,0.237488 -0.43254,0.04318 -0.43254,-0.431796 z m 1.29762,-0.97154 c 0,-0.178116 0.14598,-0.323847 0.32441,-0.323847 0.17842,0 0.3244,0.145731 0.3244,0.323847 0,0.178115 -0.14598,0.323847 -0.3244,0.323847 -0.17843,0 -0.32441,-0.145732 -0.32441,-0.323847 z m 225.78573,0 c 0,-0.178116 0.14598,-0.323847 0.3244,-0.323847 0.17842,0 0.32441,0.145731 0.32441,0.323847 0,0.178115 -0.14599,0.323847 -0.32441,0.323847 -0.17842,0 -0.3244,-0.145732 -0.3244,-0.323847 z M 127.21715,85.177497 c 0,-0.178116 0.14598,-0.323847 0.32441,-0.323847 0.17842,0 0.3244,0.145731 0.3244,0.323847 0,0.178116 -0.14598,0.323847 -0.3244,0.323847 -0.17843,0 -0.32441,-0.145731 -0.32441,-0.323847 z m 223.19049,0 c 0,-0.178116 0.14598,-0.323847 0.3244,-0.323847 0.17842,0 0.32441,0.145731 0.32441,0.323847 0,0.178116 -0.14599,0.323847 -0.32441,0.323847 -0.17842,0 -0.3244,-0.145731 -0.3244,-0.323847 z m -1.94643,-0.647694 c 0,-0.178116 0.14598,-0.323847 0.3244,-0.323847 0.17843,0 0.32441,0.145731 0.32441,0.323847 0,0.178116 -0.14598,0.323847 -0.32441,0.323847 -0.17842,0 -0.3244,-0.145731 -0.3244,-0.323847 z M 132.75964,82.218278 c 0.58198,-0.940044 6.20694,-3.925936 6.93774,-3.682755 0.40895,0.136081 -1.05166,1.12845 -3.24579,2.205264 -2.19414,1.076814 -3.85551,1.741685 -3.69195,1.477491 z m 208.03319,-1.691784 c -1.89811,-0.895627 -3.31336,-1.765929 -3.14499,-1.934004 0.40735,-0.406653 6.08238,2.192901 6.59505,3.020985 0.49858,0.805332 0.68445,0.863893 -3.45006,-1.086981 z M 141.199,77.801816 c 0.339,-0.316194 1.34628,-0.765545 2.23839,-0.99856 l 1.62202,-0.423663 -1.62202,0.975608 c -1.80772,1.087299 -3.22943,1.370964 -2.23839,0.446615 z m 194.93483,0.251049 c 0,-0.178116 0.14598,-0.323847 0.3244,-0.323847 0.17842,0 0.32441,0.145731 0.32441,0.323847 0,0.178116 -0.14599,0.323847 -0.32441,0.323847 -0.17842,0 -0.3244,-0.145731 -0.3244,-0.323847 z m -3.24405,-0.971541 c 0,-0.81151 0.68854,-0.81151 1.94643,0 0.78698,0.507711 0.69386,0.629756 -0.48661,0.637776 -0.8029,0.0055 -1.45982,-0.281544 -1.45982,-0.637776 z M 146.2489,76.001835 c 0.23789,-0.237488 0.62718,-0.237488 0.86508,0 0.23789,0.237488 0.0433,0.431796 -0.43254,0.431796 -0.4758,0 -0.67044,-0.194308 -0.43254,-0.431796 z m 182.09921,-0.602456 c -1.6058,-0.534828 -3.50357,-1.218292 -4.21726,-1.518808 -3.98877,-1.679565 -8.37589,-3.276531 -9.00765,-3.278895 -0.39847,-0.0015 -2.1608,-0.730147 -3.9163,-1.619235 -1.75549,-0.889088 -3.52853,-1.616523 -3.94008,-1.616523 -0.76359,0 -8.29845,-3.400335 -10.06157,-4.54059 -0.53526,-0.346173 -2.43303,-1.406073 -4.21726,-2.355335 -1.78422,-0.949261 -2.88335,-1.84912 -2.44249,-1.999686 0.44085,-0.150566 1.60871,0.278648 2.59524,0.953809 0.98652,0.675161 5.15127,2.622899 9.25499,4.328306 7.99954,3.324413 9.37437,3.919504 14.98522,6.486271 1.99709,0.913595 4.04886,1.661081 4.55951,1.661081 0.51065,0 1.50435,0.395722 2.20823,0.879381 0.70388,0.483659 2.44764,1.247524 3.87502,1.697477 1.42738,0.449954 2.8726,1.07435 3.2116,1.387548 0.79032,0.730153 0.61669,0.702202 -2.8872,-0.464801 z m -180.36905,0.06271 c 0,-0.178116 0.14598,-0.323847 0.3244,-0.323847 0.17842,0 0.32441,0.145731 0.32441,0.323847 0,0.178116 -0.14599,0.323847 -0.32441,0.323847 -0.17842,0 -0.3244,-0.145731 -0.3244,-0.323847 z m 1.51389,-0.755643 c 0.23789,-0.237487 0.62718,-0.237487 0.86507,0 0.2379,0.237488 0.0433,0.431796 -0.43253,0.431796 -0.4758,0 -0.67044,-0.194308 -0.43254,-0.431796 z m 2.67104,-0.959434 c 0.69591,-0.418734 3.03163,-1.404698 5.19048,-2.191032 2.15885,-0.786334 5.96893,-2.357579 8.46685,-3.491656 2.49792,-1.134077 5.41756,-2.431436 6.48809,-2.88302 3.36778,-1.42063 7.61115,-3.340888 12.88989,-5.833084 2.80729,-1.325377 5.24755,-2.266636 5.4228,-2.091686 0.17525,0.17495 -0.7971,0.783474 -2.16078,1.352276 -1.36368,0.568802 -2.92805,1.428855 -3.47637,1.91123 -0.54833,0.482376 -3.47866,1.990909 -6.51184,3.352297 -3.03319,1.361387 -5.66087,2.631509 -5.83929,2.822491 -0.17842,0.190983 -2.36816,1.038126 -4.86607,1.882539 -2.49792,0.844414 -5.85551,2.122745 -7.46131,2.840736 -4.25819,1.903934 -5.29853,2.281388 -7.46131,2.707108 -1.70178,0.334976 -1.78739,0.287438 -0.68114,-0.378199 z M 287.47311,57.650511 c 0,-0.356232 0.27473,-0.647694 0.61052,-0.647694 0.33578,0 0.79096,0.291462 1.0115,0.647694 0.22055,0.356231 -0.0542,0.647694 -0.61051,0.647694 -0.55633,0 -1.01151,-0.291463 -1.01151,-0.647694 z m -95.375,-1.943082 c 0.53526,-0.345321 1.26517,-0.627857 1.62202,-0.627857 0.35685,0 0.21086,0.282536 -0.3244,0.627857 -0.53527,0.345322 -1.26518,0.627858 -1.62203,0.627858 -0.35684,0 -0.21086,-0.282536 0.32441,-0.627858 z m 91.69841,-0.431795 c 0.2379,-0.237488 0.62719,-0.237488 0.86508,0 0.2379,0.237487 0.0433,0.431795 -0.43254,0.431795 -0.47579,0 -0.67043,-0.194308 -0.43254,-0.431795 z m -1.51389,-1.187439 c 0,-0.178116 0.14599,-0.323847 0.32441,-0.323847 0.17842,0 0.3244,0.145731 0.3244,0.323847 0,0.178116 -0.14598,0.323847 -0.3244,0.323847 -0.17842,0 -0.32441,-0.145731 -0.32441,-0.323847 z m -1.94642,-1.295388 c 0,-0.178115 0.14598,-0.323846 0.3244,-0.323846 0.17842,0 0.3244,0.145731 0.3244,0.323846 0,0.178116 -0.14598,0.323847 -0.3244,0.323847 -0.17842,0 -0.3244,-0.145731 -0.3244,-0.323847 z m -82.39882,-0.647693 c 0,-0.178116 0.14598,-0.323847 0.32441,-0.323847 0.17842,0 0.3244,0.145731 0.3244,0.323847 0,0.178115 -0.14598,0.323847 -0.3244,0.323847 -0.17843,0 -0.32441,-0.145732 -0.32441,-0.323847 z m 80.45239,0 c 0,-0.178116 0.14598,-0.323847 0.3244,-0.323847 0.17842,0 0.32441,0.145731 0.32441,0.323847 0,0.178115 -0.14599,0.323847 -0.32441,0.323847 -0.17842,0 -0.3244,-0.145732 -0.3244,-0.323847 z m -7.13691,-5.181551 c 0,-0.178115 0.14598,-0.323847 0.32441,-0.323847 0.17842,0 0.3244,0.145732 0.3244,0.323847 0,0.178116 -0.14598,0.323847 -0.3244,0.323847 -0.17843,0 -0.32441,-0.145731 -0.32441,-0.323847 z m -1.94643,-1.943081 c 0,-0.178116 0.14599,-0.323847 0.32441,-0.323847 0.17842,0 0.3244,0.145731 0.3244,0.323847 0,0.178116 -0.14598,0.323847 -0.3244,0.323847 -0.17842,0 -0.32441,-0.145731 -0.32441,-0.323847 z m -58.71726,-1.619234 c 0.22054,-0.356232 0.54697,-0.647694 0.72539,-0.647694 0.17842,0 0.14396,0.291462 -0.0766,0.647694 -0.22054,0.356231 -0.54697,0.647693 -0.72539,0.647693 -0.17843,0 -0.14396,-0.291462 0.0766,-0.647693 z m 55.08685,-1.395462 c -0.28682,-0.463295 -0.17797,-0.571954 0.28612,-0.285622 0.41198,0.25418 0.74905,0.590676 0.74905,0.747768 0,0.540267 -0.57293,0.284484 -1.03517,-0.462146 z M 212.2112,41.782013 c 0,-0.178116 0.14598,-0.323847 0.32441,-0.323847 0.17842,0 0.3244,0.145731 0.3244,0.323847 0,0.178116 -0.14598,0.323847 -0.3244,0.323847 -0.17843,0 -0.32441,-0.145731 -0.32441,-0.323847 z m 1.29762,-1.295388 c 0,-0.178115 0.14598,-0.323846 0.32441,-0.323846 0.17842,0 0.3244,0.145731 0.3244,0.323846 0,0.178116 -0.14598,0.323847 -0.3244,0.323847 -0.17843,0 -0.32441,-0.145731 -0.32441,-0.323847 z m 3.05156,-3.218115 c 1.10941,-1.521674 2.13892,-2.113595 2.13892,-1.229789 0,0.422359 -2.59392,2.82867 -3.04921,2.82867 -0.14048,0 0.26915,-0.719496 0.91029,-1.598881 z m 45.60916,1.275034 c 0,-0.178116 0.14598,-0.323847 0.3244,-0.323847 0.17843,0 0.32441,0.145731 0.32441,0.323847 0,0.178116 -0.14598,0.323847 -0.32441,0.323847 -0.17842,0 -0.3244,-0.145731 -0.3244,-0.323847 z m -8.82917,-7.76005 c -3.60709,-3.361888 -7.0807,-6.925935 -7.71913,-7.920103 -0.63844,-0.994169 0.6052,0.100214 2.76363,2.43196 2.15844,2.331747 5.06872,5.031165 6.46729,5.998707 2.0257,1.401401 6.00565,5.676658 5.22817,5.616106 -0.0999,-0.0078 -3.13288,-2.764781 -6.73996,-6.12667 z m -33.34345,3.886957 c 0,-0.495279 7.40956,-7.443379 7.94791,-7.452922 0.26764,-0.0047 0.49187,-0.372954 0.49831,-0.818243 0.006,-0.44529 1.24728,-1.829411 2.75744,-3.075826 l 2.74574,-2.266208 -2.59524,3.1836 c -2.9334,3.598431 -6.08266,6.854214 -6.62996,6.854214 -0.20155,0 -1.20351,0.874386 -2.22657,1.943081 -1.76796,1.846824 -2.49763,2.323692 -2.49763,1.632304 z m 22.70833,-14.910027 c 0,-0.178116 0.14598,-0.323847 0.32441,-0.323847 0.17842,0 0.3244,0.145731 0.3244,0.323847 0,0.178116 -0.14598,0.323847 -0.3244,0.323847 -0.17843,0 -0.32441,-0.145731 -0.32441,-0.323847 z m -7.78571,-0.97154 c 0,-0.356232 0.30919,-0.647694 0.6871,-0.647694 0.3779,0 0.50665,0.291462 0.28611,0.647694 -0.22054,0.356231 -0.52974,0.647693 -0.6871,0.647693 -0.15736,0 -0.28611,-0.291462 -0.28611,-0.647693 z m 6.48809,-0.323847 c 0,-0.178116 0.14598,-0.323847 0.32441,-0.323847 0.17842,0 0.3244,0.145731 0.3244,0.323847 0,0.178115 -0.14598,0.323847 -0.3244,0.323847 -0.17843,0 -0.32441,-0.145732 -0.32441,-0.323847 z m -5.19047,-1.295388 c 0,-0.377824 2.47622,-2.914622 2.84502,-2.914622 0.13738,0 0.72804,0.728656 1.31258,1.619235 l 1.06279,1.619234 h -2.6102 c -1.43561,0 -2.61019,-0.145731 -2.61019,-0.323847 z"
           id="path1427" />
      </g>
    </g>
  </g>
</svg>
