<?xml version="1.0" encoding="UTF-8" standalone="no"?>
<!-- Created with Inkscape (http://www.inkscape.org/) -->

<svg
   version="1.1"
   id="svg1"
   width="57.217133"
   height="43.540085"
   viewBox="0 0 57.217133 43.540085"
   xmlns="http://www.w3.org/2000/svg"
   xmlns:svg="http://www.w3.org/2000/svg">
  <defs
     id="defs1">
    <clipPath
       clipPathUnits="userSpaceOnUse"
       id="clipPath1174">
      <path
         d="M 0.74401855,68.963448 141.0674,0.23636627 205.67085,132.14035 65.347473,200.86743 Z"
         transform="matrix(2.8755469,1.3971381,-1.4083752,2.8526036,94.886892,-198.37975)"
         id="path1174" />
    </clipPath>
    <clipPath
       clipPathUnits="userSpaceOnUse"
       id="clipPath1175">
      <path
         d="M 0.74401855,68.963448 141.0674,0.23636627 205.67085,132.14035 65.347473,200.86743 Z"
         transform="matrix(2.8755469,1.3971381,-1.4083752,2.8526036,94.886892,-198.37975)"
         id="path1175" />
    </clipPath>
    <clipPath
       clipPathUnits="userSpaceOnUse"
       id="clipPath1176">
      <path
         d="M 0.74401855,68.963448 141.0674,0.23636627 205.67085,132.14035 65.347473,200.86743 Z"
         transform="matrix(2.8755469,1.3971381,-1.4083752,2.8526036,94.886892,-198.37975)"
         id="path1176" />
    </clipPath>
    <clipPath
       clipPathUnits="userSpaceOnUse"
       id="clipPath1177">
      <path
         d="M 0.74401855,68.963448 141.0674,0.23636627 205.67085,132.14035 65.347473,200.86743 Z"
         transform="matrix(2.8755469,1.3971381,-1.4083752,2.8526036,94.886892,-198.37975)"
         id="path1177" />
    </clipPath>
    <clipPath
       clipPathUnits="userSpaceOnUse"
       id="clipPath1178">
      <path
         d="M 0.74401855,68.963448 141.0674,0.23636627 205.67085,132.14035 65.347473,200.86743 Z"
         transform="matrix(2.8755469,1.3971381,-1.4083752,2.8526036,94.886892,-198.37975)"
         id="path1178" />
    </clipPath>
    <clipPath
       clipPathUnits="userSpaceOnUse"
       id="clipPath1179">
      <path
         d="M 0.74401855,68.963448 141.0674,0.23636627 205.67085,132.14035 65.347473,200.86743 Z"
         transform="matrix(2.8755469,1.3971381,-1.4083752,2.8526036,94.886892,-198.37975)"
         id="path1179" />
    </clipPath>
    <clipPath
       clipPathUnits="userSpaceOnUse"
       id="clipPath1180">
      <path
         d="M 0.74401855,68.963448 141.0674,0.23636627 205.67085,132.14035 65.347473,200.86743 Z"
         transform="matrix(2.8755469,1.3971381,-1.4083752,2.8526036,94.886892,-198.37975)"
         id="path1180" />
    </clipPath>
    <clipPath
       clipPathUnits="userSpaceOnUse"
       id="clipPath1181">
      <path
         d="M 0.74401855,68.963448 141.0674,0.23636627 205.67085,132.14035 65.347473,200.86743 Z"
         transform="matrix(2.8755469,1.3971381,-1.4083752,2.8526036,94.886892,-198.37975)"
         id="path1181" />
    </clipPath>
    <clipPath
       clipPathUnits="userSpaceOnUse"
       id="clipPath1182">
      <path
         d="M 0.74401855,68.963448 141.0674,0.23636627 205.67085,132.14035 65.347473,200.86743 Z"
         transform="matrix(2.8755469,1.3971381,-1.4083752,2.8526036,94.886892,-198.37975)"
         id="path1182" />
    </clipPath>
    <clipPath
       clipPathUnits="userSpaceOnUse"
       id="clipPath1183">
      <path
         d="M 0.74401855,68.963448 141.0674,0.23636627 205.67085,132.14035 65.347473,200.86743 Z"
         transform="matrix(2.8755469,1.3971381,-1.4083752,2.8526036,94.886892,-198.37975)"
         id="path1183" />
    </clipPath>
    <clipPath
       clipPathUnits="userSpaceOnUse"
       id="clipPath1184">
      <path
         d="M 0.74401855,68.963448 141.0674,0.23636627 205.67085,132.14035 65.347473,200.86743 Z"
         transform="matrix(2.8755469,1.3971381,-1.4083752,2.8526036,94.886892,-198.37975)"
         id="path1184" />
    </clipPath>
    <clipPath
       clipPathUnits="userSpaceOnUse"
       id="clipPath1185">
      <path
         d="M 0.74401855,68.963448 141.0674,0.23636627 205.67085,132.14035 65.347473,200.86743 Z"
         transform="matrix(2.8755469,1.3971381,-1.4083752,2.8526036,94.886892,-198.37975)"
         id="path1185" />
    </clipPath>
    <clipPath
       clipPathUnits="userSpaceOnUse"
       id="clipPath1186">
      <path
         d="M 0.74401855,68.963448 141.0674,0.23636627 205.67085,132.14035 65.347473,200.86743 Z"
         transform="matrix(2.8755469,1.3971381,-1.4083752,2.8526036,94.886892,-198.37975)"
         id="path1186" />
    </clipPath>
    <clipPath
       clipPathUnits="userSpaceOnUse"
       id="clipPath1187">
      <path
         d="M 0.74401855,68.963448 141.0674,0.23636627 205.67085,132.14035 65.347473,200.86743 Z"
         transform="matrix(2.8755469,1.3971381,-1.4083752,2.8526036,94.886892,-198.37975)"
         id="path1187" />
    </clipPath>
    <clipPath
       clipPathUnits="userSpaceOnUse"
       id="clipPath1188">
      <path
         d="M 0.74401855,68.963448 141.0674,0.23636627 205.67085,132.14035 65.347473,200.86743 Z"
         transform="matrix(2.8755469,1.3971381,-1.4083752,2.8526036,94.886892,-198.37975)"
         id="path1188" />
    </clipPath>
    <clipPath
       clipPathUnits="userSpaceOnUse"
       id="clipPath1189">
      <path
         d="M 0.74401855,68.963448 141.0674,0.23636627 205.67085,132.14035 65.347473,200.86743 Z"
         transform="matrix(2.8755469,1.3971381,-1.4083752,2.8526036,94.886892,-198.37975)"
         id="path1189" />
    </clipPath>
    <clipPath
       clipPathUnits="userSpaceOnUse"
       id="clipPath1190">
      <path
         d="M 0.74401855,68.963448 141.0674,0.23636627 205.67085,132.14035 65.347473,200.86743 Z"
         transform="matrix(2.8755469,1.3971381,-1.4083752,2.8526036,94.886892,-198.37975)"
         id="path1190" />
    </clipPath>
    <clipPath
       clipPathUnits="userSpaceOnUse"
       id="clipPath1191">
      <path
         d="M 0.74401855,68.963448 141.0674,0.23636627 205.67085,132.14035 65.347473,200.86743 Z"
         transform="matrix(2.8755469,1.3971381,-1.4083752,2.8526036,94.886892,-198.37975)"
         id="path1191" />
    </clipPath>
    <clipPath
       clipPathUnits="userSpaceOnUse"
       id="clipPath1192">
      <path
         d="M 0.74401855,68.963448 141.0674,0.23636627 205.67085,132.14035 65.347473,200.86743 Z"
         transform="matrix(2.8755469,1.3971381,-1.4083752,2.8526036,94.886892,-198.37975)"
         id="path1192" />
    </clipPath>
    <clipPath
       clipPathUnits="userSpaceOnUse"
       id="clipPath1193">
      <path
         d="M 0.74401855,68.963448 141.0674,0.23636627 205.67085,132.14035 65.347473,200.86743 Z"
         transform="matrix(2.8755469,1.3971381,-1.4083752,2.8526036,94.886892,-198.37975)"
         id="path1193" />
    </clipPath>
    <clipPath
       clipPathUnits="userSpaceOnUse"
       id="clipPath1194">
      <path
         d="M 0.74401855,68.963448 141.0674,0.23636627 205.67085,132.14035 65.347473,200.86743 Z"
         transform="matrix(2.8755469,1.3971381,-1.4083752,2.8526036,94.886892,-198.37975)"
         id="path1194" />
    </clipPath>
    <clipPath
       clipPathUnits="userSpaceOnUse"
       id="clipPath1195">
      <path
         d="M 0.74401855,68.963448 141.0674,0.23636627 205.67085,132.14035 65.347473,200.86743 Z"
         transform="matrix(2.8755469,1.3971381,-1.4083752,2.8526036,94.886892,-198.37975)"
         id="path1195" />
    </clipPath>
    <clipPath
       clipPathUnits="userSpaceOnUse"
       id="clipPath1196">
      <path
         d="M 0.74401855,68.963448 141.0674,0.23636627 205.67085,132.14035 65.347473,200.86743 Z"
         transform="matrix(2.8755469,1.3971381,-1.4083752,2.8526036,94.886892,-198.37975)"
         id="path1196" />
    </clipPath>
    <clipPath
       clipPathUnits="userSpaceOnUse"
       id="clipPath1197">
      <path
         d="M 0.74401855,68.963448 141.0674,0.23636627 205.67085,132.14035 65.347473,200.86743 Z"
         transform="matrix(2.8755469,1.3971381,-1.4083752,2.8526036,94.886892,-198.37975)"
         id="path1197" />
    </clipPath>
    <clipPath
       clipPathUnits="userSpaceOnUse"
       id="clipPath1198">
      <path
         d="M 0.74401855,68.963448 141.0674,0.23636627 205.67085,132.14035 65.347473,200.86743 Z"
         transform="matrix(2.8755469,1.3971381,-1.4083752,2.8526036,94.886892,-198.37975)"
         id="path1198" />
    </clipPath>
    <clipPath
       clipPathUnits="userSpaceOnUse"
       id="clipPath1199">
      <path
         d="M 0.74401855,68.963448 141.0674,0.23636627 205.67085,132.14035 65.347473,200.86743 Z"
         transform="matrix(2.8755469,1.3971381,-1.4083752,2.8526036,94.886892,-198.37975)"
         id="path1199" />
    </clipPath>
    <clipPath
       clipPathUnits="userSpaceOnUse"
       id="clipPath1200">
      <path
         d="M 0.74401855,68.963448 141.0674,0.23636627 205.67085,132.14035 65.347473,200.86743 Z"
         transform="matrix(2.8755469,1.3971381,-1.4083752,2.8526036,94.886892,-198.37975)"
         id="path1200" />
    </clipPath>
    <clipPath
       clipPathUnits="userSpaceOnUse"
       id="clipPath1201">
      <path
         d="M 0.74401855,68.963448 141.0674,0.23636627 205.67085,132.14035 65.347473,200.86743 Z"
         transform="matrix(2.8755469,1.3971381,-1.4083752,2.8526036,94.886892,-198.37975)"
         id="path1201" />
    </clipPath>
    <clipPath
       clipPathUnits="userSpaceOnUse"
       id="clipPath1202">
      <path
         d="M 0.74401855,68.963448 141.0674,0.23636627 205.67085,132.14035 65.347473,200.86743 Z"
         transform="matrix(2.8755469,1.3971381,-1.4083752,2.8526036,94.886892,-198.37975)"
         id="path1202" />
    </clipPath>
    <clipPath
       clipPathUnits="userSpaceOnUse"
       id="clipPath1203">
      <path
         d="M 0.74401855,68.963448 141.0674,0.23636627 205.67085,132.14035 65.347473,200.86743 Z"
         transform="matrix(2.8755469,1.3971381,-1.4083752,2.8526036,94.886892,-198.37975)"
         id="path1203" />
    </clipPath>
    <clipPath
       clipPathUnits="userSpaceOnUse"
       id="clipPath1204">
      <path
         d="M 0.74401855,68.963448 141.0674,0.23636627 205.67085,132.14035 65.347473,200.86743 Z"
         transform="matrix(2.8755469,1.3971381,-1.4083752,2.8526036,94.886892,-198.37975)"
         id="path1204" />
    </clipPath>
    <clipPath
       clipPathUnits="userSpaceOnUse"
       id="clipPath1205">
      <path
         d="M 0.74401855,68.963448 141.0674,0.23636627 205.67085,132.14035 65.347473,200.86743 Z"
         transform="matrix(2.8755469,1.3971381,-1.4083752,2.8526036,94.886892,-198.37975)"
         id="path1205" />
    </clipPath>
    <clipPath
       clipPathUnits="userSpaceOnUse"
       id="clipPath1206">
      <path
         d="M 0.74401855,68.963448 141.0674,0.23636627 205.67085,132.14035 65.347473,200.86743 Z"
         transform="matrix(2.8755469,1.3971381,-1.4083752,2.8526036,94.886892,-198.37975)"
         id="path1206" />
    </clipPath>
    <clipPath
       clipPathUnits="userSpaceOnUse"
       id="clipPath1207">
      <path
         d="M 0.74401855,68.963448 141.0674,0.23636627 205.67085,132.14035 65.347473,200.86743 Z"
         transform="matrix(2.8755469,1.3971381,-1.4083752,2.8526036,94.886892,-198.37975)"
         id="path1207" />
    </clipPath>
    <clipPath
       clipPathUnits="userSpaceOnUse"
       id="clipPath1208">
      <path
         d="M 0.74401855,68.963448 141.0674,0.23636627 205.67085,132.14035 65.347473,200.86743 Z"
         transform="matrix(2.8755469,1.3971381,-1.4083752,2.8526036,94.886892,-198.37975)"
         id="path1208" />
    </clipPath>
    <clipPath
       clipPathUnits="userSpaceOnUse"
       id="clipPath1209">
      <path
         d="M 0.74401855,68.963448 141.0674,0.23636627 205.67085,132.14035 65.347473,200.86743 Z"
         transform="matrix(2.8755469,1.3971381,-1.4083752,2.8526036,94.886892,-198.37975)"
         id="path1209" />
    </clipPath>
    <clipPath
       clipPathUnits="userSpaceOnUse"
       id="clipPath1210">
      <path
         d="M 0.74401855,68.963448 141.0674,0.23636627 205.67085,132.14035 65.347473,200.86743 Z"
         transform="matrix(2.8755469,1.3971381,-1.4083752,2.8526036,94.886892,-198.37975)"
         id="path1210" />
    </clipPath>
    <clipPath
       clipPathUnits="userSpaceOnUse"
       id="clipPath1211">
      <path
         d="M 0.74401855,68.963448 141.0674,0.23636627 205.67085,132.14035 65.347473,200.86743 Z"
         transform="matrix(2.8755469,1.3971381,-1.4083752,2.8526036,94.886892,-198.37975)"
         id="path1211" />
    </clipPath>
    <clipPath
       clipPathUnits="userSpaceOnUse"
       id="clipPath1212">
      <path
         d="M 0.74401855,68.963448 141.0674,0.23636627 205.67085,132.14035 65.347473,200.86743 Z"
         transform="matrix(2.8755469,1.3971381,-1.4083752,2.8526036,94.886892,-198.37975)"
         id="path1212" />
    </clipPath>
    <clipPath
       clipPathUnits="userSpaceOnUse"
       id="clipPath1213">
      <path
         d="M 0.74401855,68.963448 141.0674,0.23636627 205.67085,132.14035 65.347473,200.86743 Z"
         transform="matrix(2.8755469,1.3971381,-1.4083752,2.8526036,94.886892,-198.37975)"
         id="path1213" />
    </clipPath>
    <clipPath
       clipPathUnits="userSpaceOnUse"
       id="clipPath1214">
      <path
         d="M 0.74401855,68.963448 141.0674,0.23636627 205.67085,132.14035 65.347473,200.86743 Z"
         transform="matrix(2.8755469,1.3971381,-1.4083752,2.8526036,94.886892,-198.37975)"
         id="path1214" />
    </clipPath>
    <clipPath
       clipPathUnits="userSpaceOnUse"
       id="clipPath1215">
      <path
         d="M 0.74401855,68.963448 141.0674,0.23636627 205.67085,132.14035 65.347473,200.86743 Z"
         transform="matrix(2.8755469,1.3971381,-1.4083752,2.8526036,94.886892,-198.37975)"
         id="path1215" />
    </clipPath>
    <clipPath
       clipPathUnits="userSpaceOnUse"
       id="clipPath1216">
      <path
         d="M 0.74401855,68.963448 141.0674,0.23636627 205.67085,132.14035 65.347473,200.86743 Z"
         transform="matrix(2.8755469,1.3971381,-1.4083752,2.8526036,94.886892,-198.37975)"
         id="path1216" />
    </clipPath>
    <clipPath
       clipPathUnits="userSpaceOnUse"
       id="clipPath1217">
      <path
         d="M 0.74401855,68.963448 141.0674,0.23636627 205.67085,132.14035 65.347473,200.86743 Z"
         transform="matrix(2.8755469,1.3971381,-1.4083752,2.8526036,94.886892,-198.37975)"
         id="path1217" />
    </clipPath>
    <clipPath
       clipPathUnits="userSpaceOnUse"
       id="clipPath1218">
      <path
         d="M 0.74401855,68.963448 141.0674,0.23636627 205.67085,132.14035 65.347473,200.86743 Z"
         transform="matrix(2.8755469,1.3971381,-1.4083752,2.8526036,94.886892,-198.37975)"
         id="path1218" />
    </clipPath>
    <clipPath
       clipPathUnits="userSpaceOnUse"
       id="clipPath1219">
      <path
         d="M 0.74401855,68.963448 141.0674,0.23636627 205.67085,132.14035 65.347473,200.86743 Z"
         transform="matrix(2.8755469,1.3971381,-1.4083752,2.8526036,94.886892,-198.37975)"
         id="path1219" />
    </clipPath>
    <clipPath
       clipPathUnits="userSpaceOnUse"
       id="clipPath1220">
      <path
         d="M 0.74401855,68.963448 141.0674,0.23636627 205.67085,132.14035 65.347473,200.86743 Z"
         transform="matrix(2.8755469,1.3971381,-1.4083752,2.8526036,94.886892,-198.37975)"
         id="path1220" />
    </clipPath>
    <clipPath
       clipPathUnits="userSpaceOnUse"
       id="clipPath1221">
      <path
         d="M 0.74401855,68.963448 141.0674,0.23636627 205.67085,132.14035 65.347473,200.86743 Z"
         transform="matrix(2.8755469,1.3971381,-1.4083752,2.8526036,94.886892,-198.37975)"
         id="path1221" />
    </clipPath>
    <clipPath
       clipPathUnits="userSpaceOnUse"
       id="clipPath1222">
      <path
         d="M 0.74401855,68.963448 141.0674,0.23636627 205.67085,132.14035 65.347473,200.86743 Z"
         transform="matrix(2.8755469,1.3971381,-1.4083752,2.8526036,94.886892,-198.37975)"
         id="path1222" />
    </clipPath>
    <clipPath
       clipPathUnits="userSpaceOnUse"
       id="clipPath1223">
      <path
         d="M 0.74401855,68.963448 141.0674,0.23636627 205.67085,132.14035 65.347473,200.86743 Z"
         transform="matrix(2.8755469,1.3971381,-1.4083752,2.8526036,94.886892,-198.37975)"
         id="path1223" />
    </clipPath>
    <clipPath
       clipPathUnits="userSpaceOnUse"
       id="clipPath1224">
      <path
         d="M 0.74401855,68.963448 141.0674,0.23636627 205.67085,132.14035 65.347473,200.86743 Z"
         transform="matrix(2.8755469,1.3971381,-1.4083752,2.8526036,94.886892,-198.37975)"
         id="path1224" />
    </clipPath>
    <clipPath
       clipPathUnits="userSpaceOnUse"
       id="clipPath1225">
      <path
         d="M 0.74401855,68.963448 141.0674,0.23636627 205.67085,132.14035 65.347473,200.86743 Z"
         transform="matrix(2.8755469,1.3971381,-1.4083752,2.8526036,94.886892,-198.37975)"
         id="path1225" />
    </clipPath>
    <clipPath
       clipPathUnits="userSpaceOnUse"
       id="clipPath1226">
      <path
         d="M 0.74401855,68.963448 141.0674,0.23636627 205.67085,132.14035 65.347473,200.86743 Z"
         transform="matrix(2.8755469,1.3971381,-1.4083752,2.8526036,94.886892,-198.37975)"
         id="path1226" />
    </clipPath>
    <clipPath
       clipPathUnits="userSpaceOnUse"
       id="clipPath1227">
      <path
         d="M 0.74401855,68.963448 141.0674,0.23636627 205.67085,132.14035 65.347473,200.86743 Z"
         transform="matrix(2.8755469,1.3971381,-1.4083752,2.8526036,94.886892,-198.37975)"
         id="path1227" />
    </clipPath>
    <clipPath
       clipPathUnits="userSpaceOnUse"
       id="clipPath1228">
      <path
         d="M 0.74401855,68.963448 141.0674,0.23636627 205.67085,132.14035 65.347473,200.86743 Z"
         transform="matrix(2.8755469,1.3971381,-1.4083752,2.8526036,94.886892,-198.37975)"
         id="path1228" />
    </clipPath>
    <clipPath
       clipPathUnits="userSpaceOnUse"
       id="clipPath1229">
      <path
         d="M 0.74401855,68.963448 141.0674,0.23636627 205.67085,132.14035 65.347473,200.86743 Z"
         transform="matrix(2.8755469,1.3971381,-1.4083752,2.8526036,94.886892,-198.37975)"
         id="path1229" />
    </clipPath>
    <clipPath
       clipPathUnits="userSpaceOnUse"
       id="clipPath1230">
      <path
         d="M 0.74401855,68.963448 141.0674,0.23636627 205.67085,132.14035 65.347473,200.86743 Z"
         transform="matrix(2.8755469,1.3971381,-1.4083752,2.8526036,94.886892,-198.37975)"
         id="path1230" />
    </clipPath>
    <clipPath
       clipPathUnits="userSpaceOnUse"
       id="clipPath1231">
      <path
         d="M 0.74401855,68.963448 141.0674,0.23636627 205.67085,132.14035 65.347473,200.86743 Z"
         transform="matrix(2.8755469,1.3971381,-1.4083752,2.8526036,94.886892,-198.37975)"
         id="path1231" />
    </clipPath>
    <clipPath
       clipPathUnits="userSpaceOnUse"
       id="clipPath1232">
      <path
         d="M 0.74401855,68.963448 141.0674,0.23636627 205.67085,132.14035 65.347473,200.86743 Z"
         transform="matrix(2.8755469,1.3971381,-1.4083752,2.8526036,94.886892,-198.37975)"
         id="path1232" />
    </clipPath>
    <clipPath
       clipPathUnits="userSpaceOnUse"
       id="clipPath1233">
      <path
         d="M 0.74401855,68.963448 141.0674,0.23636627 205.67085,132.14035 65.347473,200.86743 Z"
         transform="matrix(2.8755469,1.3971381,-1.4083752,2.8526036,94.886892,-198.37975)"
         id="path1233" />
    </clipPath>
    <clipPath
       clipPathUnits="userSpaceOnUse"
       id="clipPath1234">
      <path
         d="M 0.74401855,68.963448 141.0674,0.23636627 205.67085,132.14035 65.347473,200.86743 Z"
         transform="matrix(2.8755469,1.3971381,-1.4083752,2.8526036,94.886892,-198.37975)"
         id="path1234" />
    </clipPath>
    <clipPath
       clipPathUnits="userSpaceOnUse"
       id="clipPath1235">
      <path
         d="M 0.74401855,68.963448 141.0674,0.23636627 205.67085,132.14035 65.347473,200.86743 Z"
         transform="matrix(2.8755469,1.3971381,-1.4083752,2.8526036,94.886892,-198.37975)"
         id="path1235" />
    </clipPath>
    <clipPath
       clipPathUnits="userSpaceOnUse"
       id="clipPath1236">
      <path
         d="M 0.74401855,68.963448 141.0674,0.23636627 205.67085,132.14035 65.347473,200.86743 Z"
         transform="matrix(2.8755469,1.3971381,-1.4083752,2.8526036,94.886892,-198.37975)"
         id="path1236" />
    </clipPath>
    <clipPath
       clipPathUnits="userSpaceOnUse"
       id="clipPath1237">
      <path
         d="M 0.74401855,68.963448 141.0674,0.23636627 205.67085,132.14035 65.347473,200.86743 Z"
         transform="matrix(2.8755469,1.3971381,-1.4083752,2.8526036,94.886892,-198.37975)"
         id="path1237" />
    </clipPath>
    <clipPath
       clipPathUnits="userSpaceOnUse"
       id="clipPath1238">
      <path
         d="M 0.74401855,68.963448 141.0674,0.23636627 205.67085,132.14035 65.347473,200.86743 Z"
         transform="matrix(2.8755469,1.3971381,-1.4083752,2.8526036,94.886892,-198.37975)"
         id="path1238" />
    </clipPath>
    <clipPath
       clipPathUnits="userSpaceOnUse"
       id="clipPath1239">
      <path
         d="M 0.74401855,68.963448 141.0674,0.23636627 205.67085,132.14035 65.347473,200.86743 Z"
         transform="matrix(2.8755469,1.3971381,-1.4083752,2.8526036,94.886892,-198.37975)"
         id="path1239" />
    </clipPath>
    <clipPath
       clipPathUnits="userSpaceOnUse"
       id="clipPath1240">
      <path
         d="M 0.74401855,68.963448 141.0674,0.23636627 205.67085,132.14035 65.347473,200.86743 Z"
         transform="matrix(2.8755469,1.3971381,-1.4083752,2.8526036,94.886892,-198.37975)"
         id="path1240" />
    </clipPath>
    <clipPath
       clipPathUnits="userSpaceOnUse"
       id="clipPath1241">
      <path
         d="M 0.74401855,68.963448 141.0674,0.23636627 205.67085,132.14035 65.347473,200.86743 Z"
         transform="matrix(2.8755469,1.3971381,-1.4083752,2.8526036,94.886892,-198.37975)"
         id="path1241" />
    </clipPath>
    <clipPath
       clipPathUnits="userSpaceOnUse"
       id="clipPath1242">
      <path
         d="M 0.74401855,68.963448 141.0674,0.23636627 205.67085,132.14035 65.347473,200.86743 Z"
         transform="matrix(2.8755469,1.3971381,-1.4083752,2.8526036,94.886892,-198.37975)"
         id="path1242" />
    </clipPath>
    <clipPath
       clipPathUnits="userSpaceOnUse"
       id="clipPath1243">
      <path
         d="M 0.74401855,68.963448 141.0674,0.23636627 205.67085,132.14035 65.347473,200.86743 Z"
         transform="matrix(2.8755469,1.3971381,-1.4083752,2.8526036,94.886892,-198.37975)"
         id="path1243" />
    </clipPath>
    <clipPath
       clipPathUnits="userSpaceOnUse"
       id="clipPath1244">
      <path
         d="M 0.74401855,68.963448 141.0674,0.23636627 205.67085,132.14035 65.347473,200.86743 Z"
         transform="matrix(2.8755469,1.3971381,-1.4083752,2.8526036,94.886892,-198.37975)"
         id="path1244" />
    </clipPath>
    <clipPath
       clipPathUnits="userSpaceOnUse"
       id="clipPath1245">
      <path
         d="M 0.74401855,68.963448 141.0674,0.23636627 205.67085,132.14035 65.347473,200.86743 Z"
         transform="matrix(2.8755469,1.3971381,-1.4083752,2.8526036,94.886892,-198.37975)"
         id="path1245" />
    </clipPath>
    <clipPath
       clipPathUnits="userSpaceOnUse"
       id="clipPath1246">
      <path
         d="M 0.74401855,68.963448 141.0674,0.23636627 205.67085,132.14035 65.347473,200.86743 Z"
         transform="matrix(2.8755469,1.3971381,-1.4083752,2.8526036,94.886892,-198.37975)"
         id="path1246" />
    </clipPath>
    <clipPath
       clipPathUnits="userSpaceOnUse"
       id="clipPath1247">
      <path
         d="M 0.74401855,68.963448 141.0674,0.23636627 205.67085,132.14035 65.347473,200.86743 Z"
         transform="matrix(2.8755469,1.3971381,-1.4083752,2.8526036,94.886892,-198.37975)"
         id="path1247" />
    </clipPath>
    <clipPath
       clipPathUnits="userSpaceOnUse"
       id="clipPath1248">
      <path
         d="M 0.74401855,68.963448 141.0674,0.23636627 205.67085,132.14035 65.347473,200.86743 Z"
         transform="matrix(2.8755469,1.3971381,-1.4083752,2.8526036,94.886892,-198.37975)"
         id="path1248" />
    </clipPath>
    <clipPath
       clipPathUnits="userSpaceOnUse"
       id="clipPath1249">
      <path
         d="M 0.74401855,68.963448 141.0674,0.23636627 205.67085,132.14035 65.347473,200.86743 Z"
         transform="matrix(2.8755469,1.3971381,-1.4083752,2.8526036,94.886892,-198.37975)"
         id="path1249" />
    </clipPath>
    <clipPath
       clipPathUnits="userSpaceOnUse"
       id="clipPath1250">
      <path
         d="M 0.74401855,68.963448 141.0674,0.23636627 205.67085,132.14035 65.347473,200.86743 Z"
         transform="matrix(2.8755469,1.3971381,-1.4083752,2.8526036,94.886892,-198.37975)"
         id="path1250" />
    </clipPath>
    <clipPath
       clipPathUnits="userSpaceOnUse"
       id="clipPath1251">
      <path
         d="M 0.74401855,68.963448 141.0674,0.23636627 205.67085,132.14035 65.347473,200.86743 Z"
         transform="matrix(2.8755469,1.3971381,-1.4083752,2.8526036,94.886892,-198.37975)"
         id="path1251" />
    </clipPath>
    <clipPath
       clipPathUnits="userSpaceOnUse"
       id="clipPath1252">
      <path
         d="M 0.74401855,68.963448 141.0674,0.23636627 205.67085,132.14035 65.347473,200.86743 Z"
         transform="matrix(2.8755469,1.3971381,-1.4083752,2.8526036,94.886892,-198.37975)"
         id="path1252" />
    </clipPath>
    <clipPath
       clipPathUnits="userSpaceOnUse"
       id="clipPath1253">
      <path
         d="M 0.74401855,68.963448 141.0674,0.23636627 205.67085,132.14035 65.347473,200.86743 Z"
         transform="matrix(2.8755469,1.3971381,-1.4083752,2.8526036,94.886892,-198.37975)"
         id="path1253" />
    </clipPath>
    <clipPath
       clipPathUnits="userSpaceOnUse"
       id="clipPath1254">
      <path
         d="M 0.74401855,68.963448 141.0674,0.23636627 205.67085,132.14035 65.347473,200.86743 Z"
         transform="matrix(2.8755469,1.3971381,-1.4083752,2.8526036,94.886892,-198.37975)"
         id="path1254" />
    </clipPath>
    <clipPath
       clipPathUnits="userSpaceOnUse"
       id="clipPath1255">
      <path
         d="M 0.74401855,68.963448 141.0674,0.23636627 205.67085,132.14035 65.347473,200.86743 Z"
         transform="matrix(2.8755469,1.3971381,-1.4083752,2.8526036,94.886892,-198.37975)"
         id="path1255" />
    </clipPath>
    <clipPath
       clipPathUnits="userSpaceOnUse"
       id="clipPath1256">
      <path
         d="M 0.74401855,68.963448 141.0674,0.23636627 205.67085,132.14035 65.347473,200.86743 Z"
         transform="matrix(2.8755469,1.3971381,-1.4083752,2.8526036,94.886892,-198.37975)"
         id="path1256" />
    </clipPath>
    <clipPath
       clipPathUnits="userSpaceOnUse"
       id="clipPath1257">
      <path
         d="M 0.74401855,68.963448 141.0674,0.23636627 205.67085,132.14035 65.347473,200.86743 Z"
         transform="matrix(2.8755469,1.3971381,-1.4083752,2.8526036,94.886892,-198.37975)"
         id="path1257" />
    </clipPath>
    <clipPath
       clipPathUnits="userSpaceOnUse"
       id="clipPath1258">
      <path
         d="M 0.74401855,68.963448 141.0674,0.23636627 205.67085,132.14035 65.347473,200.86743 Z"
         transform="matrix(0.31999999,0,0,0.31999999,315.51999,5.7599998)"
         id="path1258" />
    </clipPath>
    <clipPath
       clipPathUnits="userSpaceOnUse"
       id="clipPath1259">
      <path
         d="M 0.74401855,68.963448 141.0674,0.23636627 205.67085,132.14035 65.347473,200.86743 Z"
         transform="matrix(0.31999999,0,0,0.31999999,315.51999,5.7599998)"
         id="path1259" />
    </clipPath>
    <clipPath
       clipPathUnits="userSpaceOnUse"
       id="clipPath1345">
      <path
         d="M 0,0 H 1500 V 2100 H 0 Z"
         transform="scale(0.31999999)"
         clip-rule="evenodd"
         id="path1345" />
    </clipPath>
  </defs>
  <g
     id="g1"
     style="display:inline"
     transform="translate(-320.61273,-15.082659)">
    <g
       opacity="0.25"
       id="g1345"
       clip-path="url(#clipPath1345)"
       style="display:inline;opacity:1">
      <g
         clip-path="url(#clipPath1259)"
         id="g1344">
        <g
           clip-path="url(#clipPath1258)"
           id="g1343">
          <path
             d="m 173.60001,424 c -0.5,0 -1,-0.29999 -1.2,-0.79999 -0.3,-0.70001 0.10001,-1.5 0.7,-1.70001 C 173.5,421.29999 211.5,406.10001 255.3,394.89999 c 59.2,-15 100.30001,-15.70001 122.40001,-2.20001 0.60001,0.4 0.79999,1.20001 0.4,1.79999 -0.4,0.60001 -1.20002,0.79999 -1.79999,0.39999 -51.20001,-31.5 -200.7,28.29999 -202.2,28.9 C 173.89999,424 173.7,424 173.60001,424 Z"
             style="fill:#a49180;fill-opacity:1;fill-rule:nonzero;stroke:none"
             transform="matrix(0.08975311,-0.04395896,0.04431252,0.09047499,315.7943,27.879535)"
             clip-path="url(#clipPath1174)"
             id="path1260" />
          <path
             d="m 254.10001,118.2 c 0,0 -79.7,-41.7 -45.5,-106.900005 65.5,35.000004 45.5,106.900005 45.5,106.900005 z"
             style="fill:#deb867;fill-opacity:1;fill-rule:nonzero;stroke:none"
             transform="matrix(0.08975311,-0.04395896,0.04431252,0.09047499,315.7943,27.879535)"
             clip-path="url(#clipPath1175)"
             id="path1261" />
          <path
             d="m 254.10001,119.5 c -0.2,0 -0.4,-0.1 -0.60001,-0.2 -0.39999,-0.19999 -40.8,-21.699994 -51.89999,-57.299996 -5.2,-16.799999 -3.30001,-34.099999 5.8,-51.400002 0.2,-0.3 0.5,-0.6 0.8,-0.6999995 0.4,-0.1000004 0.7,-0.1000004 1,0.1000005 65.70001,35.099999 46.4,107.699997 46.2,108.499997 -0.10001,0.4 -0.39999,0.7 -0.8,0.9 -0.10001,0.1 -0.30001,0.1 -0.5,0.1 z m -45,-106.4 c -8.2,16.3 -9.9,32.499998 -5,48.200003 C 213.70001,92 245.8,111.9 253.20001,116.20001 255.60001,105.3 266.10001,44.5 209.10001,13.1 Z"
             style="fill:#a49180;fill-opacity:1;fill-rule:nonzero;stroke:none"
             transform="matrix(0.08975311,-0.04395896,0.04431252,0.09047499,315.7943,27.879535)"
             clip-path="url(#clipPath1176)"
             id="path1262" />
          <path
             d="m 252.2,115.6 c 0,0 31.69999,-78.199998 98.40001,-47.200006 C 318.79999,135.60001 252.2,115.6 252.2,115.6 Z"
             style="fill:#deb867;fill-opacity:1;fill-rule:nonzero;stroke:none"
             transform="matrix(0.08975311,-0.04395896,0.04431252,0.09047499,315.7943,27.879535)"
             clip-path="url(#clipPath1177)"
             id="path1263" />
          <path
             d="m 274.70001,119.7 c -13.20001,0 -22.3,-2.7 -22.8,-2.9 -0.39999,-0.1 -0.7,-0.40001 -0.8,-0.7 -0.2,-0.3 -0.2,-0.7 0,-1.1 0.19999,-0.4 15.89999,-38.599998 48,-51.200001 16.20001,-6.400001 33.79998,-5.299999 52.29998,3.299999 0.29999,0.199997 0.60001,0.400002 0.70002,0.800004 0.1,0.300003 0.1,0.699996 0,1 -16.70002,35.200008 -43,46.399998 -62.20002,49.499998 -5.6,1 -10.6,1.3 -15.19998,1.3 z m -20.6,-5 c 4.5,1.1 18.6,3.9 35.29998,1.19999 26.5,-4.4 46.5,-20.099995 59.5,-46.799999 C 331.5,61.299992 315.10001,60.39999 300,66.399994 272.39999,77.199997 257.20001,107.8 254.10001,114.7 Z"
             style="fill:#a49180;fill-opacity:1;fill-rule:nonzero;stroke:none"
             transform="matrix(0.08975311,-0.04395896,0.04431252,0.09047499,315.7943,27.879535)"
             clip-path="url(#clipPath1178)"
             id="path1264" />
          <path
             d="m 254.60001,380.20001 c -0.2,0 -0.4,0 -0.5,-0.1 -0.7,-0.29999 -1,-1.10001 -0.7,-1.79999 0.39999,-0.9 38.8,-93.19998 2.3,-136.3 -37.6,-44.30001 -4.39999,-124.1 -4.1,-124.90001 0.3,-0.69999 1.1,-1 1.8,-0.69999 0.7,0.3 1,1.1 0.7,1.8 -0.30001,0.8 -32.9,79.1 3.70001,122.1 15.6,18.39999 20.20001,48.29999 13.29999,86.5 -5.20002,28.70001 -15.10001,52.29999 -15.2,52.6 -0.3,0.49997 -0.8,0.79999 -1.3,0.79999 z"
             style="fill:#a49180;fill-opacity:1;fill-rule:nonzero;stroke:none"
             transform="matrix(0.08975311,-0.04395896,0.04431252,0.09047499,315.7943,27.879535)"
             clip-path="url(#clipPath1179)"
             id="path1265" />
          <path
             d="m 238.2,174.8 c 0,0 -16.5,-57.19999 -72.40001,-53.09999 C 163.8,173.7 238.2,174.8 238.2,174.8 Z"
             style="fill:#efb5b4;fill-opacity:1;fill-rule:nonzero;stroke:none"
             transform="matrix(0.08975311,-0.04395896,0.04431252,0.09047499,315.7943,27.879535)"
             clip-path="url(#clipPath1180)"
             id="path1266" />
          <path
             d="m 238.2,176.10001 c -1.7,0 -41.59999,-0.9 -62.09999,-22.5 -8.2,-8.60001 -12.10001,-19.4 -11.60001,-32 0,-0.7 0.60001,-1.2 1.2,-1.30001 56.3,-4.3 73.59999,53.5 73.69999,54 0.10001,0.4 0,0.80001 -0.19999,1.2 -0.2,0.39999 -0.59999,0.60001 -1,0.60001 z M 167.10001,122.9 c -0.2,11.4 3.5,21.1 10.89999,28.9 17.2,18.2 50.10001,21.10001 58.3,21.5 -3.40001,-9.40001 -21.69999,-53.2 -69.19999,-50.4 z"
             style="fill:#a49180;fill-opacity:1;fill-rule:nonzero;stroke:none"
             transform="matrix(0.08975311,-0.04395896,0.04431252,0.09047499,315.7943,27.879535)"
             clip-path="url(#clipPath1181)"
             id="path1267" />
          <path
             d="m 241.60001,205 c 0,0 27,-52.5 80.80001,-39.10001 C 314.39999,216.39999 241.60001,205 241.60001,205 Z"
             style="fill:#efb5b4;fill-opacity:1;fill-rule:nonzero;stroke:none"
             transform="matrix(0.08975311,-0.04395896,0.04431252,0.09047499,315.7943,27.879535)"
             clip-path="url(#clipPath1182)"
             id="path1268" />
          <path
             d="m 258.20001,207.39999 c -9.69999,0 -16.5,-1 -16.69999,-1.1 -0.4,-0.10001 -0.80001,-0.30001 -1,-0.7 -0.2,-0.39999 -0.2,-0.8 0,-1.2 0.3,-0.5 28.09999,-53.3 82.3,-39.69999 0.70001,0.19999 1.1,0.8 1,1.5 -5.70001,35.69999 -43.20001,41.19999 -65.60001,41.19999 z m -14.40001,-3.5 c 11.4,1.30001 69.30001,5.7 77.09999,-37 C 275.10001,156.3 249,195.2 243.8,203.89999 Z"
             style="fill:#a49180;fill-opacity:1;fill-rule:nonzero;stroke:none"
             transform="matrix(0.08975311,-0.04395896,0.04431252,0.09047499,315.7943,27.879535)"
             clip-path="url(#clipPath1183)"
             id="path1269" />
          <path
             d="m 101.5,168 c 0,0 -88.900001,13.89999 -100.199997,-58.9 C 74.900002,98.300003 101.5,168 101.5,168 Z"
             style="fill:#deb867;fill-opacity:1;fill-rule:nonzero;stroke:none"
             transform="matrix(0.08975311,-0.04395896,0.04431252,0.09047499,315.7943,27.879535)"
             clip-path="url(#clipPath1184)"
             id="path1270" />
          <path
             d="m 84.900002,170.3 c -16,0 -40.400002,-2.6 -59,-16.19999 C 11.7,143.7 3,128.60001 0,109.3 c -0.1,-0.4 0,-0.69999 0.30000001,-1 C 0.5,108 0.80000001,107.8 1.2,107.8 c 73.899998,-10.899998 101.3,59 101.6,59.7 0.1,0.39999 0.1,0.8 -0.1,1.10001 -0.2,0.39999 -0.6,0.6 -1,0.69999 -0.2,0 -6.899997,1 -16.799998,1 z M 2.9000001,110.2 C 6,128.2 14.200001,142.2 27.5,151.89999 c 26,19 63.699997,15.9 72.099998,14.9 C 95.099998,156.7 67.5,101.6 2.9000001,110.2 Z"
             style="fill:#a49180;fill-opacity:1;fill-rule:nonzero;stroke:none"
             transform="matrix(0.08975311,-0.04395896,0.04431252,0.09047499,315.7943,27.879535)"
             clip-path="url(#clipPath1185)"
             id="path1271" />
          <path
             d="m 98.5,167 c 0,0 -21.099998,-81.699997 51.10001,-96.400002 C 163.89999,143.5 98.5,167 98.5,167 Z"
             style="fill:#deb867;fill-opacity:1;fill-rule:nonzero;stroke:none"
             transform="matrix(0.08975311,-0.04395896,0.04431252,0.09047499,315.7943,27.879535)"
             clip-path="url(#clipPath1186)"
             id="path1272" />
          <path
             d="m 98.5,168.39999 c -0.199997,0 -0.400002,-0.1 -0.599998,-0.19999 -0.300004,-0.2 -0.599999,-0.5 -0.699997,-0.80001 -0.1,-0.39999 -10.099999,-40.5 8.099995,-69.699993 9.2,-14.800003 24,-24.300003 44,-28.400002 0.4,-0.1 0.7,0 1,0.199997 0.30001,0.199997 0.5,0.5 0.60001,0.900002 7.5,38.199996 -7,62.800006 -20.5,76.800006 -14.6,15 -30.699998,21 -31.400002,21.19999 -0.200005,-0.1 -0.40001,0 -0.500008,0 z m 50,-96.199993 c -18.60001,4.099998 -32.3,13.099998 -41,26.900001 C 91.800003,124.2 97.800003,157.8 99.400002,165.2 103.70001,163.39999 116.7,157.3 128.5,145.09999 147.2,125.9 153.89999,101.3 148.5,72.199997 Z"
             style="fill:#a49180;fill-opacity:1;fill-rule:nonzero;stroke:none"
             transform="matrix(0.08975311,-0.04395896,0.04431252,0.09047499,315.7943,27.879535)"
             clip-path="url(#clipPath1187)"
             id="path1273" />
          <path
             d="m 240.8,390.89999 c -0.1,0 -0.1,0 -0.19999,0 -0.7,-0.1 -1.2,-0.79998 -1.10001,-1.5 0.10001,-0.89999 12.60001,-88.5 -61.10001,-114.80001 -54.59999,-19.5 -79.299999,-104.9 -79.499996,-105.80001 -0.199997,-0.69999 0.199997,-1.5 0.900001,-1.69999 0.800005,-0.2 1.500005,0.19999 1.699995,0.89999 0.2,0.8 24.6,85 77.9,104 75.80001,27 63,116.80002 62.80001,117.69998 -0.1,0.70004 -0.7,1.20004 -1.4,1.20004 z"
             style="fill:#a49180;fill-opacity:1;fill-rule:nonzero;stroke:none"
             transform="matrix(0.08975311,-0.04395896,0.04431252,0.09047499,315.7943,27.879535)"
             clip-path="url(#clipPath1188)"
             id="path1274" />
          <path
             d="M 134,237.10001 C 134,237.10001 79.099998,215.5 47.5,261 86.800003,293.70001 134,237.10001 134,237.10001 Z"
             style="fill:#efb5b4;fill-opacity:1;fill-rule:nonzero;stroke:none"
             transform="matrix(0.08975311,-0.04395896,0.04431252,0.09047499,315.7943,27.879535)"
             clip-path="url(#clipPath1189)"
             id="path1275" />
          <path
             d="M 74.300003,272.39999 C 65.100006,272.39999 55.700005,269.5 46.700005,262 c -0.5,-0.39999 -0.599999,-1.20001 -0.200001,-1.79999 31.799999,-45.89999 87.499996,-24.6 88.100006,-24.39999 0.39999,0.2 0.69999,0.5 0.8,0.89999 0.1,0.4 0,0.9 -0.3,1.2 -0.5,0.49998 -29.30001,34.49998 -60.800007,34.49998 z m -25.000004,-11.6 C 83.399994,287.69998 123.89999,246.19998 131.60001,237.69998 122,234.5 76.699997,222.5 49.299999,260.79999 Z"
             style="fill:#a49180;fill-opacity:1;fill-rule:nonzero;stroke:none"
             transform="matrix(0.08975311,-0.04395896,0.04431252,0.09047499,315.7943,27.879535)"
             clip-path="url(#clipPath1190)"
             id="path1276" />
          <path
             d="m 151.39999,257.20001 c 0,0 -9.6,-58.19999 41.60001,-79.5 23.7,45.19998 -41.60001,79.5 -41.60001,79.5 z"
             style="fill:#efb5b4;fill-opacity:1;fill-rule:nonzero;stroke:none"
             transform="matrix(0.08975311,-0.04395896,0.04431252,0.09047499,315.7943,27.879535)"
             clip-path="url(#clipPath1191)"
             id="path1277" />
          <path
             d="m 151.39999,258.5 c -0.19999,0 -0.39999,0 -0.6,-0.10001 -0.4,-0.20001 -0.7,-0.6 -0.7,-1 -0.10001,-0.6 -9.2,-59.6 42.40001,-81 0.60001,-0.3 1.39999,0 1.7,0.60001 24,46 -41.5,81 -42.09999,81.29999 -0.20002,0.1 -0.5,0.20001 -0.70002,0.20001 z m 41,-79.10001 C 149.2,198.2 151.5,245 152.5,255.09999 c 9.89999,-5.79999 59,-36.79999 39.89999,-75.7 z"
             style="fill:#a49180;fill-opacity:1;fill-rule:nonzero;stroke:none"
             transform="matrix(0.08975311,-0.04395896,0.04431252,0.09047499,315.7943,27.879535)"
             clip-path="url(#clipPath1192)"
             id="path1278" />
          <path
             d="m 205.89999,412.60001 c -0.5,0 -1,-0.29999 -1.19999,-0.70002 -0.30001,-0.70001 -0.10001,-1.5 0.6,-1.79998 0.9,-0.4 86.7,-44.5 98.49999,-99.9 15.20001,-71.19999 80.39999,-83.69999 81,-83.8 0.79999,-0.2 1.39999,0.39999 1.6,1.10001 0.20002,0.70001 -0.39999,1.39999 -1.1,1.6 -0.60001,0.10001 -64.10001,12.3 -78.9,81.7 -12.1,56.6 -96.3,100 -99.89999,101.80002 -0.2,-0.10004 -0.39999,-3e-5 -0.60001,-3e-5 z"
             style="fill:#a49180;fill-opacity:1;fill-rule:nonzero;stroke:none"
             transform="matrix(0.08975311,-0.04395896,0.04431252,0.09047499,315.7943,27.879535)"
             clip-path="url(#clipPath1193)"
             id="path1279" />
          <path
             d="m 385.70001,228.89999 c 0,0 -25.39999,-86.39999 45.29999,-107 20.29999,71.5 -45.29999,107 -45.29999,107 z"
             style="fill:#deb867;fill-opacity:1;fill-rule:nonzero;stroke:none"
             transform="matrix(0.08975311,-0.04395896,0.04431252,0.09047499,315.7943,27.879535)"
             clip-path="url(#clipPath1194)"
             id="path1280" />
          <path
             d="m 385.70001,230.2 c -0.20001,0 -0.29999,0 -0.5,-0.10001 -0.39999,-0.2 -0.70001,-0.5 -0.79999,-0.89999 -0.1,-0.4 -12.70001,-44.40001 5.20002,-77.09999 8.39999,-15.4 22.20001,-26 41,-31.5 0.39999,-0.1 0.70001,-0.1 1,0.1 0.29998,0.19999 0.5,0.5 0.6,0.8 20.29999,71.7 -45.29999,108.2 -46,108.49999 -3e-5,0.2 -0.20004,0.2 -0.50003,0.2 z m 44.4,-106.6 c -17.4,5.4 -30.29999,15.4 -38.10001,29.79999 -15.39999,28.2 -7.5,65.2 -5.39999,73.4 9.5,-5.79999 60.5,-40.49999 43.5,-103.19999 z"
             style="fill:#a49180;fill-opacity:1;fill-rule:nonzero;stroke:none"
             transform="matrix(0.08975311,-0.04395896,0.04431252,0.09047499,315.7943,27.879535)"
             clip-path="url(#clipPath1195)"
             id="path1281" />
          <path
             d="m 386.29999,225.8 c 0,0 78.29999,-31.5 102.29999,38.09999 C 418.10001,287.5 386.29999,225.8 386.29999,225.8 Z"
             style="fill:#deb867;fill-opacity:1;fill-rule:nonzero;stroke:none"
             transform="matrix(0.08975311,-0.04395896,0.04431252,0.09047499,315.7943,27.879535)"
             clip-path="url(#clipPath1196)"
             id="path1282" />
          <path
             d="m 457.70001,270.5 c -20.89999,0 -36.70001,-7.79999 -47.5,-15.8 -16.79999,-12.5 -24.79999,-27.7 -25.1,-28.4 -0.20002,-0.3 -0.20002,-0.69999 -0.10001,-1.1 0.10001,-0.4 0.39999,-0.60001 0.79999,-0.80001 0.39999,-0.19999 38.79999,-15.3 70.1,-1.1 15.79999,7.19999 27.29999,20.69999 33.9,39.89999 0.1,0.29999 0.1,0.70001 -0.10001,1 -0.20001,0.29999 -0.39999,0.60001 -0.79999,0.70001 C 477.5,269 467.10001,270.5 457.70001,270.5 Z m -69.5,-44 c 2.29999,4 10.10001,16.10001 23.70001,26.2 21.5,16.00001 46.70002,19.40001 74.9,10.3 -6.5,-17.89999 -17.20001,-30.3 -32,-37.10001 -26.90003,-12.29998 -59.40003,-2 -66.60001,0.60001 z"
             style="fill:#a49180;fill-opacity:1;fill-rule:nonzero;stroke:none"
             transform="matrix(0.08975311,-0.04395896,0.04431252,0.09047499,315.7943,27.879535)"
             clip-path="url(#clipPath1197)"
             id="path1283" />
          <path
             d="m 331.5,256 c 0,0 45.10001,-38.89999 18,-87.89999 C 301.5,188 331.5,256 331.5,256 Z"
             style="fill:#efb5b4;fill-opacity:1;fill-rule:nonzero;stroke:none"
             transform="matrix(0.08975311,-0.04395896,0.04431252,0.09047499,315.7943,27.879535)"
             clip-path="url(#clipPath1198)"
             id="path1284" />
          <path
             d="m 331.5,257.29999 c -0.10001,0 -0.20001,0 -0.29999,0 -0.39999,-0.10001 -0.79999,-0.4 -0.89999,-0.79999 -0.70001,-1.5 -16.60001,-38.2 -5.5,-65.8 4.39999,-11 12.6,-19.10001 24.20001,-23.9 0.60001,-0.3 1.39999,0 1.70001,0.60001 27.29999,49.40001 -17.89999,89.2 -18.29999,89.59999 -0.30004,0.20001 -0.60006,0.29999 -0.90005,0.29999 z M 348.89999,169.8 c -10.39999,4.60001 -17.70001,12 -21.70001,21.9 -9.29999,23.3 1.70001,54.3 4.70001,62 7.30002,-7 39.5,-41.80001 17,-83.9 z"
             style="fill:#a49180;fill-opacity:1;fill-rule:nonzero;stroke:none"
             transform="matrix(0.08975311,-0.04395896,0.04431252,0.09047499,315.7943,27.879535)"
             clip-path="url(#clipPath1199)"
             id="path1285" />
          <path
             d="m 319.29999,275.70001 c 0,0 56.29999,-17.89999 84.70001,29.70001 -41.39999,29.89997 -84.70001,-29.70001 -84.70001,-29.70001 z"
             style="fill:#efb5b4;fill-opacity:1;fill-rule:nonzero;stroke:none"
             transform="matrix(0.08975311,-0.04395896,0.04431252,0.09047499,315.7943,27.879535)"
             clip-path="url(#clipPath1200)"
             id="path1286" />
          <path
             d="M 379.39999,315.10001 C 346.69998,315.10001 318.60001,277 318.29999,276.5 318,276.20001 318,275.70001 318.09998,275.29999 c 0.1,-0.4 0.5,-0.70001 0.89999,-0.9 0.60001,-0.20001 57.60001,-17.6 86.19998,30.29999 0.4,0.60001 0.20001,1.4 -0.39999,1.79999 -8.49997,6.10004 -17.09995,8.60004 -25.39997,8.60004 z m -57.79998,-38.70002 c 7.1,9 44.79998,53.20002 80.6,28.60001 -24.80002,-40 -70.80002,-31 -80.6,-28.60001 z"
             style="fill:#a49180;fill-opacity:1;fill-rule:nonzero;stroke:none"
             transform="matrix(0.08975311,-0.04395896,0.04431252,0.09047499,315.7943,27.879535)"
             clip-path="url(#clipPath1201)"
             id="path1287" />
          <path
             d="m 297.20001,388.20001 c 0,0 55.10001,21.10001 47.79999,76 -51.10001,-2.40002 -47.79999,-76 -47.79999,-76 z"
             style="fill:#efb5b4;fill-opacity:1;fill-rule:nonzero;stroke:none"
             transform="matrix(0.08975311,-0.04395896,0.04431252,0.09047499,315.7943,27.879535)"
             clip-path="url(#clipPath1202)"
             id="path1288" />
          <path
             d="m 344.89999,465.5 c -51.89999,-2.39999 -49.1,-76.60001 -49.1,-77.39999 0,-0.4 0.20001,-0.79999 0.6,-1.10001 0.4,-0.20001 0.79999,-0.29999 1.20002,-0.10001 0.6,0.20002 56,22.10001 48.6,77.4 0,0.70001 -0.6,1.20001 -1.30002,1.20001 z M 298.5,390.20001 c 0,11.5 1.89999,69.5 45.29999,72.5 5.5,-46.80002 -36.09998,-68.30002 -45.29999,-72.5 z"
             style="fill:#a49180;fill-opacity:1;fill-rule:nonzero;stroke:none"
             transform="matrix(0.08975311,-0.04395896,0.04431252,0.09047499,315.7943,27.879535)"
             clip-path="url(#clipPath1203)"
             id="path1289" />
          <path
             d="m 307.10001,386.20001 c 0,0 58.79998,-9.6 61.29998,-65.6 -51.39999,-8.10001 -61.29998,65.6 -61.29998,65.6 z"
             style="fill:#efb5b4;fill-opacity:1;fill-rule:nonzero;stroke:none"
             transform="matrix(0.08975311,-0.04395896,0.04431252,0.09047499,315.7943,27.879535)"
             clip-path="url(#clipPath1204)"
             id="path1290" />
          <path
             d="m 307.10001,387.60001 c -0.29999,0 -0.70002,-0.10001 -0.9,-0.4 -0.29999,-0.29999 -0.5,-0.70001 -0.39999,-1.1 0.20001,-1.70002 5.79999,-41.20002 29.6,-59 9.5,-7.10001 20.70002,-9.70002 33.10001,-7.70002 0.70001,0.10001 1.20001,0.70002 1.10001,1.4 -2.5,56.39999 -61.79999,66.70001 -62.4,66.79999 0.0999,3e-5 -3e-5,3e-5 -0.10003,3e-5 z m 53.6,-66.20002 C 351.90002,321.39999 344,324 337,329.19998 c -20.10001,15 -26.89999,47.20001 -28.29999,55.29999 9.79999,-2.20001 55.4,-15.10001 58.20001,-62.70001 -2.00003,-0.29996 -4.10003,-0.39997 -6.20001,-0.39997 z"
             style="fill:#a49180;fill-opacity:1;fill-rule:nonzero;stroke:none"
             transform="matrix(0.08975311,-0.04395896,0.04431252,0.09047499,315.7943,27.879535)"
             clip-path="url(#clipPath1205)"
             id="path1291" />
          <path
             d="m 378.5,391.10001 c 0,0 84.29999,-2.70002 82.89999,70.89999 C 387.20001,460.10001 378.5,391.10001 378.5,391.10001 Z"
             style="fill:#deb867;fill-opacity:1;fill-rule:nonzero;stroke:none"
             transform="matrix(0.08975311,-0.04395896,0.04431252,0.09047499,315.7943,27.879535)"
             clip-path="url(#clipPath1206)"
             id="path1292" />
          <path
             d="m 461.5,463.39999 c -39,-1 -59.79999,-20.6 -70.39999,-36.79998 -11.5,-17.5 -13.70002,-34.60001 -13.79999,-35.29999 0,-0.4 0.1,-0.79999 0.29999,-1 0.20001,-0.29999 0.6,-0.5 1,-0.5 0.39999,0 41.79998,-1 66.19998,23.1 12.39999,12.20002 18.5,28.79999 18.1,49.20002 0,0.39999 -0.20001,0.70001 -0.39999,0.89999 -0.29999,0.29996 -0.70001,0.39996 -1,0.39996 z m -81.39999,-71 c 0.79998,4.5 4,18.60001 13.20001,32.70002 14.70001,22.39999 37.20001,34.29998 66.80002,35.5 0.1,-19 -5.70002,-34.4 -17.29999,-45.79999 C 421.79999,394.10001 387.70001,392.5 380.10001,392.39999 Z"
             style="fill:#a49180;fill-opacity:1;fill-rule:nonzero;stroke:none"
             transform="matrix(0.08975311,-0.04395896,0.04431252,0.09047499,315.7943,27.879535)"
             clip-path="url(#clipPath1207)"
             id="path1293" />
          <path
             d="m 377,393.89999 c 0,0 5.89999,-89.80001 79.39999,-84.89999 C 450.79999,383.10001 377,393.89999 377,393.89999 Z"
             style="fill:#deb867;fill-opacity:1;fill-rule:nonzero;stroke:none"
             transform="matrix(0.08975311,-0.04395896,0.04431252,0.09047499,315.7943,27.879535)"
             clip-path="url(#clipPath1208)"
             id="path1294" />
          <path
             d="m 377,395.20001 c -0.29999,0 -0.70001,-0.1 -0.89999,-0.39999 -0.29999,-0.29999 -0.5,-0.70001 -0.4,-1.10001 0,-0.5 3.29999,-46.1 31.4,-70.6 13.20001,-11.60001 29.79998,-16.79999 49.39999,-15.5 0.39999,0 0.70001,0.20001 0.89999,0.5 0.20002,0.29998 0.29999,0.6 0.29999,1 -5.6,74.30001 -79.80002,86 -80.5,86.1 -0.1,0 -0.19998,0 -0.19998,0 z m 73.60001,-85.1 c -16.4,0 -30.4,5 -41.79999,15 -24.20001,21.20001 -29.4,58.6 -30.29999,67.1 10.89999,-2.20001 70.80002,-17.20001 76.39999,-82 -1.50003,0 -2.90002,-0.1 -4.30001,-0.1 z"
             style="fill:#a49180;fill-opacity:1;fill-rule:nonzero;stroke:none"
             transform="matrix(0.08975311,-0.04395896,0.04431252,0.09047499,315.7943,27.879535)"
             clip-path="url(#clipPath1209)"
             id="path1295" />
          <path
             d="m 96.599998,163.8 c 0,0 10.600002,-75.8 42.299992,-77.399998 C 152.60001,113.2 96.599998,163.8 96.599998,163.8 Z"
             style="fill:#eeddcf;fill-opacity:1;fill-rule:nonzero;stroke:none"
             transform="matrix(0.08975311,-0.04395896,0.04431252,0.09047499,315.7943,27.879535)"
             clip-path="url(#clipPath1210)"
             id="path1296" />
          <path
             d="m 91.199997,165.5 c 0,0 -48,-59.5 -76.099998,-44.7 2.100002,30.09999 76.099998,44.7 76.099998,44.7 z"
             style="fill:#eeddcf;fill-opacity:1;fill-rule:nonzero;stroke:none"
             transform="matrix(0.08975311,-0.04395896,0.04431252,0.09047499,315.7943,27.879535)"
             clip-path="url(#clipPath1211)"
             id="path1297" />
          <path
             d="m 100.8,170.8 c 0,0 -74.599995,-45.19999 -39.199998,-118.599995 C 130.2,82.5 100.8,170.8 100.8,170.8 Z"
             style="fill:#deb867;fill-opacity:1;fill-rule:nonzero;stroke:none"
             transform="matrix(0.08975311,-0.04395896,0.04431252,0.09047499,315.7943,27.879535)"
             clip-path="url(#clipPath1212)"
             id="path1298" />
          <path
             d="m 100.8,172.10001 c -0.19999,0 -0.5,-0.10001 -0.69999,-0.2 -0.800007,-0.5 -75.300007,-46.7 -39.700005,-120.300004 0.3,-0.599998 1.099999,-0.900001 1.8,-0.599998 68.900005,30.400001 40.200005,119.400002 39.900005,120.200002 -0.1,0.4 -0.4,0.7 -0.80001,0.80001 -0.2,0.1 -0.4,0.1 -0.5,0.1 z M 62.200001,54 C 31.700001,119.1 89.900002,161.89999 100,168.7 103.5,156.5 122.3,81.599998 62.200001,54 Z"
             style="fill:#a49180;fill-opacity:1;fill-rule:nonzero;stroke:none"
             transform="matrix(0.08975311,-0.04395896,0.04431252,0.09047499,315.7943,27.879535)"
             clip-path="url(#clipPath1213)"
             id="path1299" />
          <path
             d="m 95.099998,157 c 0,0 -47.7,-59.5 -28,-84.400002 31.700005,6 28,84.400002 28,84.400002 z"
             style="fill:#eeddcf;fill-opacity:1;fill-rule:nonzero;stroke:none"
             transform="matrix(0.08975311,-0.04395896,0.04431252,0.09047499,315.7943,27.879535)"
             clip-path="url(#clipPath1214)"
             id="path1300" />
          <path
             d="m 258.10001,111.3 c 0,0 52.89999,-53.899998 80.30001,-37.899998 C 335.10001,103.4 258.10001,111.3 258.10001,111.3 Z"
             style="fill:#eeddcf;fill-opacity:1;fill-rule:nonzero;stroke:none"
             transform="matrix(0.08975311,-0.04395896,0.04431252,0.09047499,315.7943,27.879535)"
             clip-path="url(#clipPath1215)"
             id="path1301" />
          <path
             d="m 252.60001,109.7 c 0,0 -7.5,-76.100002 -39.10001,-79.100002 C 198.8,56.900002 252.60001,109.7 252.60001,109.7 Z"
             style="fill:#eeddcf;fill-opacity:1;fill-rule:nonzero;stroke:none"
             transform="matrix(0.08975311,-0.04395896,0.04431252,0.09047499,315.7943,27.879535)"
             clip-path="url(#clipPath1216)"
             id="path1302" />
          <path
             d="m 389.20001,224.60001 c 0,0 76.4,3.1 81.20001,34.39999 C 445,275.29999 389.20001,224.60001 389.20001,224.60001 Z"
             style="fill:#eeddcf;fill-opacity:1;fill-rule:nonzero;stroke:none"
             transform="matrix(0.08975311,-0.04395896,0.04431252,0.09047499,315.7943,27.879535)"
             clip-path="url(#clipPath1217)"
             id="path1303" />
          <path
             d="m 387,219.3 c 0,0 54.5,-53.69999 36.89999,-80.09999 C 394.20001,144.3 387,219.3 387,219.3 Z"
             style="fill:#eeddcf;fill-opacity:1;fill-rule:nonzero;stroke:none"
             transform="matrix(0.08975311,-0.04395896,0.04431252,0.09047499,315.7943,27.879535)"
             clip-path="url(#clipPath1218)"
             id="path1304" />
          <path
             d="m 383.89999,391.89999 c 0,0 71.5,27.10001 66.10001,58.4 -29.29999,7.40002 -66.10001,-58.4 -66.10001,-58.4 z"
             style="fill:#eeddcf;fill-opacity:1;fill-rule:nonzero;stroke:none"
             transform="matrix(0.08975311,-0.04395896,0.04431252,0.09047499,315.7943,27.879535)"
             clip-path="url(#clipPath1219)"
             id="path1305" />
          <path
             d="m 383.39999,386.20001 c 0,0 68.69999,-33.6 60.4,-64.29999 -29.79999,-4.60003 -60.4,64.29999 -60.4,64.29999 z"
             style="fill:#eeddcf;fill-opacity:1;fill-rule:nonzero;stroke:none"
             transform="matrix(0.08975311,-0.04395896,0.04431252,0.09047499,315.7943,27.879535)"
             clip-path="url(#clipPath1220)"
             id="path1306" />
          <path
             d="m 251.8,120 c 0,0 -33.09999,-80.699997 38.99999,-118.5999985 C 328,66.5 251.8,120 251.8,120 Z"
             style="fill:#deb867;fill-opacity:1;fill-rule:nonzero;stroke:none"
             transform="matrix(0.08975311,-0.04395896,0.04431252,0.09047499,315.7943,27.879535)"
             clip-path="url(#clipPath1221)"
             id="path1307" />
          <path
             d="m 251.8,121.3 c -0.1,0 -0.3,0 -0.39999,-0.1 -0.39999,-0.1 -0.7,-0.40001 -0.89999,-0.80001 -0.30001,-0.8 -32.80001,-82.300002 39.59999,-120.30000153 0.6,-0.30000001 1.39999,-0.09999999737 1.79998,0.5 C 329.19998,66.099998 253.2,120.5 252.5,121 c -0.10001,0.2 -0.39999,0.3 -0.7,0.3 z M 290.29999,3.0999999 c -63.2,34.1999991 -42,103.2000001 -37.9,114.7000001 10.10001,-7.7 69.80002,-56.700002 37.9,-114.7000001 z"
             style="fill:#a49180;fill-opacity:1;fill-rule:nonzero;stroke:none"
             transform="matrix(0.08975311,-0.04395896,0.04431252,0.09047499,315.7943,27.879535)"
             clip-path="url(#clipPath1222)"
             id="path1308" />
          <path
             d="m 260.5,104.8 c 0,0 -7.3,-75.899998 22.89999,-85.899998 C 306.70001,41.200001 260.5,104.8 260.5,104.8 Z"
             style="fill:#eeddcf;fill-opacity:1;fill-rule:nonzero;stroke:none"
             transform="matrix(0.08975311,-0.04395896,0.04431252,0.09047499,315.7943,27.879535)"
             clip-path="url(#clipPath1223)"
             id="path1309" />
          <path
             d="m 156,245.2 c 0,0 10.3,-53.30001 30.3,-53.30001 C 199.3,210.8 156,245.2 156,245.2 Z"
             style="fill:#eeddcf;fill-opacity:1;fill-rule:nonzero;stroke:none"
             transform="matrix(0.08975311,-0.04395896,0.04431252,0.09047499,315.7943,27.879535)"
             clip-path="url(#clipPath1224)"
             id="path1310" />
          <path
             d="m 227.2,168.89999 c 0,0 -52.2,-14.89999 -50.5,-34.8 20,-11.29999 50.5,34.8 50.5,34.8 z"
             style="fill:#eeddcf;fill-opacity:1;fill-rule:nonzero;stroke:none"
             transform="matrix(0.08975311,-0.04395896,0.04431252,0.09047499,315.7943,27.879535)"
             clip-path="url(#clipPath1225)"
             id="path1311" />
          <path
             d="m 255,199.89999 c 0,0 38.20001,-38.5 54.89999,-27.3 C 310.10001,195.5 255,199.89999 255,199.89999 Z"
             style="fill:#eeddcf;fill-opacity:1;fill-rule:nonzero;stroke:none"
             transform="matrix(0.08975311,-0.04395896,0.04431252,0.09047499,315.7943,27.879535)"
             clip-path="url(#clipPath1226)"
             id="path1312" />
          <path
             d="m 334.89999,242.5 c 0,0 -7.5,-53 11,-60.89999 19.30002,12.29998 -11,60.89999 -11,60.89999 z"
             style="fill:#eeddcf;fill-opacity:1;fill-rule:nonzero;stroke:none"
             transform="matrix(0.08975311,-0.04395896,0.04431252,0.09047499,315.7943,27.879535)"
             clip-path="url(#clipPath1227)"
             id="path1313" />
          <path
             d="m 335,281.39999 c 0,0 54.20001,0.60001 57.89999,20.29999 C 376.5,317.89999 335,281.39999 335,281.39999 Z"
             style="fill:#eeddcf;fill-opacity:1;fill-rule:nonzero;stroke:none"
             transform="matrix(0.08975311,-0.04395896,0.04431252,0.09047499,315.7943,27.879535)"
             clip-path="url(#clipPath1228)"
             id="path1314" />
          <path
             d="m 315.70001,374.89999 c 0,0 22.4,-49.39999 41.79999,-44.79998 8.29999,21.39999 -41.79999,44.79998 -41.79999,44.79998 z"
             style="fill:#eeddcf;fill-opacity:1;fill-rule:nonzero;stroke:none"
             transform="matrix(0.08975311,-0.04395896,0.04431252,0.09047499,315.7943,27.879535)"
             clip-path="url(#clipPath1229)"
             id="path1315" />
          <path
             d="m 305.70001,404.10001 c 0,0 41.60001,34.79998 31.9,52.39999 -22.9,2.20001 -31.9,-52.39999 -31.9,-52.39999 z"
             style="fill:#eeddcf;fill-opacity:1;fill-rule:nonzero;stroke:none"
             transform="matrix(0.08975311,-0.04395896,0.04431252,0.09047499,315.7943,27.879535)"
             clip-path="url(#clipPath1230)"
             id="path1316" />
          <path
             d="m 117.5,241.39999 c 0,0 -38.199997,32.60001 -54,20.4 1.400002,-22.9 54,-20.4 54,-20.4 z"
             style="fill:#eeddcf;fill-opacity:1;fill-rule:nonzero;stroke:none"
             transform="matrix(0.08975311,-0.04395896,0.04431252,0.09047499,315.7943,27.879535)"
             clip-path="url(#clipPath1231)"
             id="path1317" />
          <path
             d="m 85.900002,130.60001 c -1.099999,0 -2.199997,-0.7 -2.5,-1.80001 -0.5,-1.4 0.300003,-3 1.699996,-3.5 C 86.5,124.8 88,125.5 88.5,126.9 l 0.1,0.30001 c 0.5,1.4 -0.300003,2.9 -1.699996,3.4 -0.400002,0 -0.700005,0 -1,0 z M 82.199997,120.3 c -1.099999,0 -2.099999,-0.69999 -2.5,-1.69999 -0.5,-1.4 0.1,-3.1 1.5,-3.6 1.400001,-0.5 2.900001,0.1 3.400001,1.4 l 0.1,0.3 c 0.5,1.4 -0.199997,2.9 -1.599999,3.5 -0.299995,-1e-5 -0.599998,0.1 -0.900001,0.1 z M 78.5,109.9 c -1.099998,0 -2.099998,-0.69999 -2.5,-1.8 -0.5,-1.4 0.199997,-3.1 1.5,-3.6 1.400002,-0.5 2.900002,0.1 3.400002,1.5 l 0.1,0.3 c 0.5,1.40001 -0.199997,2.90001 -1.599998,3.40001 C 79.099998,109.9 78.800003,109.9 78.5,109.9 Z M 74.699997,99.599998 c -1.099999,0 -2.099999,-0.699996 -2.5,-1.699996 -0.5,-1.400002 0.1,-3.099999 1.5,-3.599999 1.400001,-0.599998 2.900001,0.1 3.400001,1.400002 l 0.1,0.300003 c 0.5,1.400001 -0.199997,2.900001 -1.599999,3.5 C 75.400002,99.5 75,99.599998 74.699997,99.599998 Z M 71,89.199997 C 69.900002,89.199997 68.900002,88.5 68.5,87.5 68,86.099998 68.6,84.400002 70,83.900002 c 1.400002,-0.5 2.900002,0.1 3.400002,1.400001 l 0.1,0.300003 c 0.5,1.400002 -0.199997,2.900002 -1.599998,3.5 -0.300004,0.09999 -0.599999,0.09999 -0.900002,0.09999 z"
             style="fill:#deb867;fill-opacity:1;fill-rule:nonzero;stroke:none"
             transform="matrix(0.08975311,-0.04395896,0.04431252,0.09047499,315.7943,27.879535)"
             clip-path="url(#clipPath1232)"
             id="path1318" />
          <path
             d="m 116,128.2 c -0.4,0 -0.9,-0.10001 -1.3,-0.30001 -1.30001,-0.69999 -1.80001,-2.3 -1.1,-3.59999 0.7,-1.30001 2.4,-1.90001 3.7,-1.2 1.3,0.7 1.9,2.2 1.19999,3.5 l -0.1,0.2 C 117.9,127.7 117,128.2 116,128.2 Z m 5.3,-9.7 c -0.4,0 -0.9,-0.1 -1.3,-0.3 -1.3,-0.7 -1.8,-2.30001 -1.1,-3.6 0.7,-1.3 2.4,-1.9 3.7,-1.2 1.3,0.7 1.9,2.2 1.2,3.5 l -0.1,0.2 c -0.5,0.9 -1.5,1.4 -2.4,1.4 z m 5.2,-9.7 c -0.5,0 -0.9,-0.1 -1.3,-0.4 -1.30001,-0.69999 -1.7,-2.4 -1,-3.69999 0.69999,-1.30001 2.4,-1.80001 3.69999,-1.1 1.30001,0.69999 1.80001,2.3 1,3.5 l -0.1,0.19999 C 128.3,108.4 127.4,108.8 126.5,108.8 Z m 5.3,-9.600003 c -0.39999,0 -0.89999,-0.1 -1.3,-0.300003 -1.3,-0.699997 -1.8,-2.300003 -1.10001,-3.599999 0.7,-1.300003 2.4,-1.900001 3.7,-1.199997 1.3,0.699997 1.89999,2.199997 1.2,3.5 l -0.10001,0.199997 C 133.60001,98.699997 132.7,99.199997 131.8,99.199997 Z"
             style="fill:#deb867;fill-opacity:1;fill-rule:nonzero;stroke:none"
             transform="matrix(0.08975311,-0.04395896,0.04431252,0.09047499,315.7943,27.879535)"
             clip-path="url(#clipPath1233)"
             id="path1319" />
          <path
             d="m 56,147.3 c -0.5,0 -1,-0.1 -1.400002,-0.39999 -1.299999,-0.8 -1.799999,-2.5 -1,-3.8 0.8,-1.30001 2.3,-1.7 3.599999,-1 l 0.200001,0.1 c 1.299999,0.8 1.7,2.4 0.900001,3.7 C 57.700001,146.8 56.900002,147.3 56,147.3 Z m -9.5,-5.69999 c -0.5,0 -1,-0.10001 -1.400002,-0.4 -1.299999,-0.8 -1.799999,-2.5 -1,-3.8 0.8,-1.3 2.3,-1.7 3.599999,-1 l 0.200001,0.1 c 1.299999,0.80001 1.7,2.4 0.900001,3.7 -0.5,0.99999 -1.399997,1.4 -2.299999,1.4 z M 37.099998,136 c -0.5,0 -0.900001,-0.10001 -1.400001,-0.39999 -1.299999,-0.80001 -1.799999,-2.5 -1.099999,-3.7 0.700001,-1.3 2.3,-1.8 3.599999,-1 l 0.200001,0.1 c 1.299999,0.80001 1.7,2.4 0.900001,3.7 C 38.900002,135.5 38,136 37.099998,136 Z m -9.399997,-5.7 c -0.5,0 -0.9,-0.1 -1.4,-0.39999 -1.299999,-0.8 -1.799999,-2.5 -1.1,-3.7 0.700001,-1.3 2.299999,-1.8 3.6,-1 l 0.200001,0.1 c 1.299999,0.8 1.700001,2.4 0.9,3.7 C 29.5,129.8 28.6,130.3 27.700001,130.3 Z"
             style="fill:#deb867;fill-opacity:1;fill-rule:nonzero;stroke:none"
             transform="matrix(0.08975311,-0.04395896,0.04431252,0.09047499,315.7943,27.879535)"
             clip-path="url(#clipPath1234)"
             id="path1320" />
          <path
             d="m 266.60001,88 c -0.20002,0 -0.5,0 -0.70002,-0.1 -1.39999,-0.4 -2.29998,-1.9 -1.79998,-3.300002 0.39999,-1.400001 1.89999,-2.300003 3.39999,-2 1.39999,0.400002 2.29999,1.800004 1.89999,3.199997 l -0.1,0.300003 c -0.4,1.099999 -1.5,1.900002 -2.69998,1.900002 z m 3,-10.599998 c -0.20002,0 -0.5,0 -0.70002,-0.1 -1.39999,-0.4 -2.29998,-1.9 -1.79998,-3.300002 C 267.5,72.599998 269,71.699997 270.5,72 c 1.39999,0.400002 2.29999,1.800003 1.89999,3.199997 l -0.1,0.300003 c -0.5,1.099998 -1.59998,1.900002 -2.69998,1.900002 z M 272.5,66.800003 c -0.20001,0 -0.5,0 -0.70001,-0.1 -1.4,-0.400002 -2.29999,-1.900002 -1.79999,-3.3 0.39999,-1.400001 2,-2.400001 3.39999,-2 1.4,0.400002 2.29999,1.8 1.9,3.200001 l -0.10001,0.300003 C 274.70001,66 273.70001,66.800003 272.5,66.800003 Z m 2.89999,-10.600002 c -0.20001,0 -0.39999,0 -0.6,-0.1 -1.4,-0.400001 -2.29999,-1.799999 -2,-3.2 0.29999,-1.400002 1.79999,-2.5 3.29999,-2.099999 1.39999,0.400002 2.29998,1.700001 2,3.099999 L 277.99997,54.2 c -0.29996,1.099998 -1.39996,2 -2.59998,2.000001 z m 3,-10.600003 c -0.20001,0 -0.5,0 -0.70001,-0.1 -1.39999,-0.400002 -2.29999,-1.900002 -1.79999,-3.299999 0.4,-1.400002 2,-2.299999 3.4,-2 1.39999,0.400001 2.29999,1.799999 1.89999,3.200001 l -0.1,0.299999 c -0.49997,1.099998 -1.59998,1.899997 -2.69999,1.899997 z M 281.29999,35 c -0.20001,0 -0.5,0 -0.70001,-0.1 -1.4,-0.400002 -2.29999,-1.900002 -1.79999,-3.3 0.39999,-1.399999 1.89999,-2.399999 3.39999,-2 1.4,0.4 2.29999,1.8 1.9,3.200001 L 283.99997,33.1 C 283.5,34.200001 282.5,35 281.29999,35 Z"
             style="fill:#deb867;fill-opacity:1;fill-rule:nonzero;stroke:none"
             transform="matrix(0.08975311,-0.04395896,0.04431252,0.09047499,315.7943,27.879535)"
             clip-path="url(#clipPath1235)"
             id="path1321" />
          <path
             d="m 239.7,85.300003 c -1,0 -1.9,-0.5 -2.4,-1.400001 -0.69999,-1.300004 -0.19999,-3.099999 1.10001,-3.699997 1.3,-0.699997 2.89999,-0.300003 3.60001,1 l 0.1,0.199997 c 0.7,1.300003 0.2,2.900001 -1.1,3.599998 -0.40001,0.199997 -0.90001,0.300003 -1.30002,0.300003 z M 234.7,75.5 c -1,0 -1.9,-0.5 -2.4,-1.400002 -0.69999,-1.300003 -0.19999,-3.099998 1.10001,-3.699996 1.3,-0.699997 2.89999,-0.300004 3.60001,1 l 0.1,0.199996 c 0.7,1.300004 0.2,2.900002 -1.1,3.599999 C 235.5,75.400002 235.10001,75.5 234.7,75.5 Z m -5.09999,-9.800003 c -1,0 -1.9,-0.5 -2.4,-1.400002 -0.69999,-1.299999 -0.3,-3 1,-3.7 1.30001,-0.700001 2.9,-0.3 3.60001,1 l 0.1,0.2 c 0.7,1.3 0.2,2.900002 -1.1,3.599999 -0.30002,0.200004 -0.70001,0.300003 -1.20001,0.300003 z m -5,-9.799995 c -1,0 -1.9,-0.5 -2.4,-1.400002 -0.69999,-1.299999 -0.3,-3 1,-3.700001 1.30001,-0.700001 2.9,-0.299999 3.60001,1 L 227,52 c 0.7,1.299999 0.2,2.900002 -1.10001,3.599998 C 225.5,55.799999 225,55.900002 224.60001,55.900002 Z m -5,-9.700001 c -1,0 -1.9,-0.5 -2.4,-1.400002 -0.69999,-1.299999 -0.19999,-3.099998 1.10001,-3.700001 1.3,-0.7 2.89999,-0.299999 3.6,1 l 0.10001,0.200001 c 0.7,1.299999 0.2,2.900002 -1.10001,3.599999 -0.50003,0.2 -0.90002,0.300003 -1.30001,0.300003 z"
             style="fill:#deb867;fill-opacity:1;fill-rule:nonzero;stroke:none"
             transform="matrix(0.08975311,-0.04395896,0.04431252,0.09047499,315.7943,27.879535)"
             clip-path="url(#clipPath1236)"
             id="path1322" />
          <path
             d="m 287.60001,101.1 c -1,0 -1.9,-0.5 -2.4,-1.500002 -0.70001,-1.300003 -0.1,-2.900001 1.20001,-3.599998 1.29999,-0.699997 3,-0.199997 3.70002,1.099998 0.70001,1.300004 0.29998,2.900002 -1.10001,3.500002 l -0.20001,0.1 c -0.40003,0.3 -0.80002,0.4 -1.20001,0.4 z m 9.79998,-4.900003 c -1,0 -2,-0.599999 -2.39999,-1.5 -0.60001,-1.300003 -0.10001,-2.900002 1.29999,-3.599999 1.29999,-0.599998 3.1,-0.1 3.70001,1.199997 0.60001,1.300003 0.20001,2.900002 -1.10001,3.5 l -0.20001,0.1 c -0.49997,0.200004 -0.89999,0.300003 -1.29999,0.300002 z m 9.9,-4.799995 c -1,0 -2,-0.599999 -2.4,-1.5 -0.6,-1.300004 -0.1,-2.900002 1.29999,-3.599999 1.29999,-0.599998 3,-0.1 3.70001,1.199997 0.60001,1.300003 0.20002,2.900002 -1.1,3.5 l -0.20001,0.1 c -0.49997,0.200005 -0.89997,0.300004 -1.29999,0.300004 z m 9.90002,-4.800004 c -1,0 -2,-0.599998 -2.39999,-1.5 -0.60001,-1.300003 -0.10001,-2.900001 1.29999,-3.599998 1.29998,-0.599998 3,-0.1 3.70001,1.199997 0.6,1.300003 0.20001,2.900001 -1.10001,3.5 l -0.20001,0.1 C 318,86.5 317.60001,86.599998 317.20001,86.599998 Z m 9.9,-4.900001 c -1,0 -2,-0.599999 -2.4,-1.5 -0.6,-1.300003 -0.1,-2.900002 1.29999,-3.599999 1.29999,-0.599998 3.10001,-0.1 3.70001,1.199997 0.60001,1.300003 0.20001,2.900002 -1.1,3.5 l -0.20002,0.1 c -0.5,0.300003 -0.89999,0.300003 -1.29998,0.300002 z"
             style="fill:#deb867;fill-opacity:1;fill-rule:nonzero;stroke:none"
             transform="matrix(0.08975311,-0.04395896,0.04431252,0.09047499,315.7943,27.879535)"
             clip-path="url(#clipPath1237)"
             id="path1323" />
          <path
             d="m 397.20001,203.60001 c -0.39999,0 -0.79999,-0.10001 -1.1,-0.30001 -1.29999,-0.6 -1.9,-2.19999 -1.29999,-3.6 0.6,-1.30001 2.29999,-2.10001 3.6,-1.4 1.29999,0.60001 2,2.10001 1.4,3.4 l -0.10001,0.19999 c -0.6,1.10001 -1.5,1.70002 -2.5,1.70002 z m 4.4,-10.10001 c -0.4,0 -0.70002,-0.10001 -1,-0.2 -1.4,-0.6 -2,-2.19999 -1.4,-3.5 0.60001,-1.39999 2.20001,-2.1 3.60001,-1.5 1.39999,0.60001 2.1,2 1.5,3.4 l -0.10001,0.19999 c -0.6,1 -1.6,1.60001 -2.6,1.60001 z M 406,183.5 c -0.39999,0 -0.70001,-0.10001 -1,-0.2 -1.39999,-0.6 -2,-2.19999 -1.39999,-3.5 0.6,-1.39999 2.20001,-2.1 3.6,-1.5 1.4,0.60001 2.10001,2 1.5,3.4 l -0.1,0.19999 C 408,182.8 407,183.5 406,183.5 Z m 4.39999,-10.10001 c -0.39999,0 -0.70001,-0.1 -1,-0.19999 -1.39999,-0.60001 -2,-2.2 -1.39999,-3.5 0.60001,-1.4 2.20001,-2.10001 3.60001,-1.5 1.39999,0.6 2.1,2 1.5,3.39999 l -0.10001,0.2 c -0.5,1.00001 -1.5,1.6 -2.60001,1.6 z m 4.4,-10.09999 c -0.4,0 -0.70001,-0.1 -1,-0.19999 -1.4,-0.60001 -2,-2.2 -1.4,-3.5 0.60001,-1.4 2.20002,-2.10001 3.60001,-1.5 1.39999,0.6 2.10001,2 1.5,3.39999 l -0.10001,0.2 c -0.5,1 -1.5,1.6 -2.6,1.6 z m 4.5,-10.1 c -0.4,0 -0.70001,-0.10001 -1,-0.2 -1.4,-0.60001 -2,-2.2 -1.4,-3.5 0.60001,-1.39999 2.20002,-2.10001 3.60001,-1.5 1.39999,0.60001 2.10001,2 1.5,3.39999 l -0.10001,0.2 c -0.6,1.00002 -1.6,1.60001 -2.6,1.60001 z"
             style="fill:#deb867;fill-opacity:1;fill-rule:nonzero;stroke:none"
             transform="matrix(0.08975311,-0.04395896,0.04431252,0.09047499,315.7943,27.879535)"
             clip-path="url(#clipPath1238)"
             id="path1324" />
          <path
             d="m 448.70001,252.5 c -0.29999,0 -0.70001,-0.10001 -1,-0.2 -1.39999,-0.5 -2.20001,-2.19999 -1.6,-3.5 0.5,-1.39999 2,-2.1 3.39999,-1.6 l 0.29999,0.1 c 1.39999,0.5 2.1,2.10001 1.5,3.5 -0.5,1.09999 -1.5,1.7 -2.59998,1.7 z M 438.5,248.39999 c -0.29999,0 -0.70001,-0.1 -1,-0.19999 -1.39999,-0.60001 -2.10001,-2.2 -1.60001,-3.60001 0.60001,-1.39999 2,-2.10001 3.4,-1.5 L 439.5,243.2 c 1.39999,0.6 2,2.1 1.5,3.5 -0.39999,1.1 -1.39999,1.69999 -2.5,1.69999 z M 428.29999,244.3 c -0.29999,0 -0.70001,-0.1 -1,-0.19999 -1.4,-0.5 -2.20001,-2.2 -1.60001,-3.5 0.5,-1.4 1.9,-2.10001 3.4,-1.60001 l 0.29998,0.10001 c 1.4,0.5 2.10001,2.1 1.5,3.5 C 430.39999,243.7 429.39999,244.3 428.29999,244.3 Z m -10.19998,-4.1 c -0.29999,0 -0.70002,-0.10001 -1,-0.2 -1.4,-0.5 -2.20002,-2.2 -1.60001,-3.5 0.5,-1.39999 2,-2.10001 3.39999,-1.60001 L 419.19998,235 c 1.4,0.5 2.10001,2.10001 1.5,3.5 -0.49997,1 -1.49997,1.7 -2.59997,1.7 z"
             style="fill:#deb867;fill-opacity:1;fill-rule:nonzero;stroke:none"
             transform="matrix(0.08975311,-0.04395896,0.04431252,0.09047499,315.7943,27.879535)"
             clip-path="url(#clipPath1239)"
             id="path1325" />
          <path
             d="m 403.10001,367.79999 c -0.60001,0 -1.29999,-0.20001 -1.79999,-0.70001 -1.10001,-1 -1.20001,-2.70002 -0.20001,-3.79999 1,-1.10001 2.79998,-1.29999 3.89999,-0.29999 1.10001,1 1.29999,2.60001 0.29999,3.70001 l -0.20001,0.20001 c -0.49997,0.59998 -1.19999,0.89997 -1.99997,0.89997 z M 410.5,359.60001 c -0.60001,0 -1.29999,-0.20002 -1.79999,-0.70002 -1.1,-1 -1.20001,-2.70001 -0.20001,-3.79998 1,-1.10001 2.79999,-1.29999 3.89999,-0.29999 1.10001,1 1.29999,2.6 0.29999,3.70001 l -0.20001,0.20001 C 412,359.29999 411.20001,359.60001 410.5,359.60001 Z M 417.89999,351.5 c -0.70001,0 -1.29998,-0.20001 -1.79998,-0.70001 C 415,349.79999 415,348.09998 416,347 c 1,-1.10001 2.79999,-1.20001 3.89999,-0.20001 1.10001,1 1.20002,2.6 0.20002,3.70001 l -0.20002,0.20001 c -0.6,0.5 -1.29998,0.79999 -2,0.79999 z m 7.4,-8.20001 c -0.60001,0 -1.29999,-0.20001 -1.79999,-0.70001 -1.10001,-1 -1.20001,-2.70002 -0.20001,-3.79999 1,-1.10001 2.79999,-1.29999 3.89999,-0.29999 1.10001,1 1.29999,2.60001 0.29999,3.70001 l -0.20001,0.20001 C 426.70001,343 426,343.29999 425.29999,343.29999 Z m 7.40002,-8.09998 c -0.6,0 -1.29999,-0.20001 -1.79999,-0.70001 -1.1,-1 -1.20001,-2.70001 -0.20001,-3.79999 1,-1.1 2.79999,-1.29999 3.9,-0.29999 1.1,1 1.29998,2.60001 0.29998,3.70002 l -0.20001,0.20001 c -0.59997,0.59994 -1.29999,0.89996 -1.99997,0.89996 z"
             style="fill:#deb867;fill-opacity:1;fill-rule:nonzero;stroke:none"
             transform="matrix(0.08975311,-0.04395896,0.04431252,0.09047499,315.7943,27.879535)"
             clip-path="url(#clipPath1240)"
             id="path1326" />
          <path
             d="m 433.10001,438.5 c -0.70002,0 -1.5,-0.29999 -2,-0.89999 -1,-1.10001 -1,-2.9 0.1,-3.9 1.10001,-1 2.70001,-1 3.70001,0.10001 l 0.20002,0.20001 c 1,1.10001 0.89999,2.79999 -0.20002,3.79999 -0.50003,0.39999 -1.10003,0.69998 -1.80001,0.69998 z m -7.30002,-8.20001 c -0.70001,0 -1.5,-0.29999 -2,-0.9 -1,-1.1 -1,-2.89999 0.1,-3.89999 1.10001,-1 2.70002,-1 3.70002,0.10001 l 0.20001,0.20001 c 1,1.1 0.89999,2.79999 -0.20001,3.79999 -0.5,0.39999 -1.10001,0.69998 -1.80002,0.69998 z M 418.5,422.10001 c -0.70001,0 -1.5,-0.29999 -2,-0.9 -1,-1.1 -1,-2.89999 0.10001,-3.89999 1.1,-1 2.70001,-1 3.70001,0.1 l 0.20001,0.20002 c 1,1.1 0.89999,2.79998 -0.20001,3.79998 -0.50003,0.39997 -1.20001,0.69999 -1.80002,0.69999 z m -7.29999,-8.20002 c -0.70001,0 -1.5,-0.29998 -2,-0.89999 -1,-1.10001 -1,-2.89999 0.10001,-3.89999 1.1,-1 2.70001,-1 3.70001,0.1 l 0.20001,0.20001 c 1,1.10001 0.9,2.79999 -0.20001,3.79999 -0.60004,0.4 -1.20004,0.69998 -1.80002,0.69998 z"
             style="fill:#deb867;fill-opacity:1;fill-rule:nonzero;stroke:none"
             transform="matrix(0.08975311,-0.04395896,0.04431252,0.09047499,315.7943,27.879535)"
             clip-path="url(#clipPath1241)"
             id="path1327" />
          <path
             d="m 377,393.89999 c 0,0 57.79999,-64.30001 121.70001,-13.6 C 454.10001,440.5 377,393.89999 377,393.89999 Z"
             style="fill:#deb867;fill-opacity:1;fill-rule:nonzero;stroke:none"
             transform="matrix(0.08975311,-0.04395896,0.04431252,0.09047499,315.7943,27.879535)"
             clip-path="url(#clipPath1242)"
             id="path1328" />
          <path
             d="m 437.89999,412.29999 c -32.5,0 -61.1,-17 -61.6,-17.29999 -0.29999,-0.20001 -0.60001,-0.60001 -0.60001,-0.89999 -0.1,-0.4 0.10001,-0.79999 0.29999,-1.10001 0.60001,-0.60001 59.39999,-64.60001 123.5,-13.79999 0.60001,0.5 0.70001,1.29999 0.20001,1.79999 C 482,405 459.10001,412.29999 437.89999,412.29999 Z M 379.10001,393.5 c 10.70001,5.89999 77.6,39.5 117.69998,-13.10001 C 440,336.39999 387.5,385.10001 379.10001,393.5 Z"
             style="fill:#a49180;fill-opacity:1;fill-rule:nonzero;stroke:none"
             transform="matrix(0.08975311,-0.04395896,0.04431252,0.09047499,315.7943,27.879535)"
             clip-path="url(#clipPath1243)"
             id="path1329" />
          <path
             d="m 390.79999,391.89999 c 0,0 68.6,-33.29998 88.5,-8.6 -12.79999,29.6 -88.5,8.6 -88.5,8.6 z"
             style="fill:#eeddcf;fill-opacity:1;fill-rule:nonzero;stroke:none"
             transform="matrix(0.08975311,-0.04395896,0.04431252,0.09047499,315.7943,27.879535)"
             clip-path="url(#clipPath1244)"
             id="path1330" />
          <path
             d="m 421,392.79999 c -1.29999,0 -2.5,-1 -2.70001,-2.4 -0.20001,-1.5 0.89999,-2.79998 2.29999,-3 1.39999,-0.20001 2.89999,0.79999 3.1,2.29999 0.20001,1.5 -0.70001,2.79999 -2.20001,3 h -0.29999 c 3e-5,0.10001 -0.1,0.10001 -0.19998,0.10001 z M 431.89999,391.5 c -1.39999,0 -2.5,-1 -2.70001,-2.39999 -0.20001,-1.5 0.9,-2.79999 2.4,-3 1.5,-0.10001 2.89999,0.89999 3.1,2.29998 0.20001,1.5 -0.70001,2.79999 -2.20001,3 h -0.29999 C 432.10001,391.5 432,391.5 431.89999,391.5 Z m 11,-1.20001 c -1.39999,0 -2.5,-1 -2.70001,-2.4 -0.1,-1.5 0.9,-2.79998 2.4,-2.89999 1.29998,-0.10001 2.89999,0.89999 3.1,2.39999 0.10001,1.5 -0.79999,2.79999 -2.29999,2.9 h -0.29998 c -0.10001,0 -0.20002,0 -0.20002,0 z m 10.9,-1.29999 c -1.29999,0 -2.5,-1 -2.70001,-2.39999 -0.20002,-1.5 0.89999,-2.79999 2.29998,-3 1.5,-0.20002 2.9,0.79998 3.10001,2.29998 0.20001,1.5 -0.70001,2.79999 -2.20001,3 h -0.29999 C 454,389 453.89999,389 453.79999,389 Z m 10.90002,-1.20001 c -1.29999,0 -2.5,-1 -2.70001,-2.4 -0.20001,-1.5 0.89999,-2.79998 2.29999,-3 1.29999,-0.20001 2.89999,0.79999 3.1,2.29999 0.20002,1.5 -0.70001,2.79999 -2.20001,3 h -0.29999 c 0,3e-5 -0.1,0.10001 -0.19998,0.10001 z"
             style="fill:#deb867;fill-opacity:1;fill-rule:nonzero;stroke:none"
             transform="matrix(0.08975311,-0.04395896,0.04431252,0.09047499,315.7943,27.879535)"
             clip-path="url(#clipPath1245)"
             id="path1331" />
          <path
             d="m 73.400002,260.60001 c -1.099999,0 -2.199997,-0.60001 -2.599999,-1.70002 -0.5,-1.39999 0,-2.89999 1.400002,-3.39999 l 0.300003,-0.10001 c 1.400001,-0.6 2.900001,0.10001 3.5,1.5 0.5,1.4 -0.1,2.9 -1.5,3.5 -0.40001,0.20002 -0.700005,0.20002 -1.100006,0.20002 z m 10.299995,-4 c -1.099999,0 -2.199997,-0.60001 -2.599999,-1.7 -0.5,-1.39999 0,-2.89999 1.400002,-3.39999 l 0.300003,-0.10001 c 1.400002,-0.60001 2.900002,0.10001 3.5,1.5 0.5,1.39999 -0.1,2.89999 -1.5,3.50001 -0.400001,0.1 -0.800003,0.19999 -1.100006,0.19999 z m 10.200005,-4 c -1.099999,0 -2.199997,-0.60001 -2.599999,-1.7 -0.5,-1.39999 0,-2.89999 1.400002,-3.39999 l 0.199997,-0.10001 c 1.400001,-0.5 2.900001,0.10001 3.5,1.5 0.5,1.39999 -0.1,2.89999 -1.5,3.5 -0.300004,0.1 -0.700005,0.2 -1,0.2 z M 104.1,248.5 c -1.1,0 -2.2,-0.60001 -2.6,-1.7 -0.5,-1.39999 0,-2.89999 1.4,-3.39999 L 103.20001,243.3 c 1.4,-0.6 2.9,0.10001 3.5,1.5 0.5,1.4 -0.1,2.9 -1.5,3.5 C 104.8,248.5 104.5,248.5 104.1,248.5 Z"
             style="fill:#efb5b4;fill-opacity:1;fill-rule:nonzero;stroke:none"
             transform="matrix(0.08975311,-0.04395896,0.04431252,0.09047499,315.7943,27.879535)"
             clip-path="url(#clipPath1246)"
             id="path1332" />
          <path
             d="m 166.60001,231.39999 c -0.4,0 -0.9,-0.1 -1.30001,-0.3 -1.3,-0.7 -1.8,-2.3 -1.1,-3.60001 0.69999,-1.3 2.39999,-1.89999 3.69999,-1.19999 1.30001,0.69999 1.80001,2.19999 1.10001,3.5 l -0.10001,0.19999 c -0.5,0.90001 -1.39999,1.40001 -2.29998,1.40001 z M 171.8,221.8 c -0.39999,0 -0.89999,-0.1 -1.3,-0.3 -1.3,-0.7 -1.8,-2.3 -1.10001,-3.60001 0.7,-1.3 2.4,-1.89999 3.7,-1.19999 1.3,0.69999 1.89999,2.19999 1.2,3.5 l -0.10001,0.19999 C 173.7,221.3 172.8,221.8 171.8,221.8 Z m 5.30001,-9.69999 c -0.4,0 -0.9,-0.10001 -1.30001,-0.30001 -1.3,-0.69999 -1.8,-2.3 -1.1,-3.6 0.69999,-1.30001 2.39999,-1.9 3.69999,-1.2 1.30001,0.7 1.9,2.2 1.2,3.5 l -0.10001,0.2 c -0.49998,0.90001 -1.39997,1.40001 -2.39997,1.40001 z M 182.39999,202.5 c -0.39999,0 -0.89999,-0.10001 -1.3,-0.3 -1.3,-0.7 -1.8,-2.30001 -1.10001,-3.60001 0.7,-1.3 2.4,-1.89999 3.7,-1.2 1.3,0.7 1.9,2.2 1.2,3.5 l -0.10001,0.2 C 184.3,202 183.3,202.5 182.39999,202.5 Z"
             style="fill:#efb5b4;fill-opacity:1;fill-rule:nonzero;stroke:none"
             transform="matrix(0.08975311,-0.04395896,0.04431252,0.09047499,315.7943,27.879535)"
             clip-path="url(#clipPath1247)"
             id="path1333" />
          <path
             d="m 210.5,161.3 c -0.60001,0 -1.2,-0.19999 -1.7,-0.6 -1.19999,-0.9 -1.39999,-2.7 -0.5,-3.9 0.9,-1.19999 2.5,-1.39999 3.7,-0.5 l 0.2,0.2 c 1.19999,0.89999 1.3,2.60001 0.39999,3.8 C 212,161 211.3,161.3 210.5,161.3 Z m -8.7,-6.8 c -0.6,0 -1.19999,-0.2 -1.69999,-0.60001 -1.2,-0.89999 -1.4,-2.69999 -0.5,-3.89999 0.89999,-1.2 2.5,-1.39999 3.69999,-0.5 l 0.2,0.2 c 1.2,0.89999 1.3,2.6 0.39999,3.8 -0.5,0.7 -1.29998,1 -2.09999,1 z m -8.6,-6.8 c -0.60001,0 -1.2,-0.2 -1.7,-0.60001 -1.2,-0.89999 -1.39999,-2.7 -0.5,-3.89999 0.89999,-1.2 2.5,-1.4 3.7,-0.5 l 0.19999,0.19999 c 1.2,0.9 1.30001,2.60001 0.4,3.80001 -0.59999,0.69999 -1.29999,1 -2.09999,1 z m -8.7,-6.80001 c -0.60001,0 -1.2,-0.19999 -1.7,-0.6 -1.19999,-0.9 -1.39999,-2.7 -0.5,-3.9 0.9,-1.19999 2.5,-1.39999 3.7,-0.5 l 0.2,0.2 c 1.19999,0.89999 1.3,2.60001 0.39999,3.8 -0.49998,0.70002 -1.29999,1 -2.09999,1 z"
             style="fill:#efb5b4;fill-opacity:1;fill-rule:nonzero;stroke:none"
             transform="matrix(0.08975311,-0.04395896,0.04431252,0.09047499,315.7943,27.879535)"
             clip-path="url(#clipPath1248)"
             id="path1334" />
          <path
             d="m 272.20001,193.7 c -1,0 -2,-0.60001 -2.39999,-1.5 -0.60001,-1.30001 -0.10001,-2.9 1.29999,-3.60001 1.29998,-0.60001 3,-0.10001 3.70001,1.2 0.6,1.3 0.20001,2.89999 -1.10001,3.5 l -0.20001,0.1 C 273,193.60001 272.60001,193.7 272.20001,193.7 Z m 10,-4.7 c -1,0 -2,-0.60001 -2.39999,-1.5 -0.60001,-1.3 -0.10001,-2.89999 1.29999,-3.60001 1.29998,-0.6 3,-0.1 3.70001,1.2 0.6,1.3 0.20001,2.89999 -1.10001,3.5 L 283.5,188.7 c -0.5,0.19999 -0.89999,0.3 -1.29999,0.3 z m 9.9,-4.7 c -1,0 -2,-0.6 -2.4,-1.5 -0.6,-1.3 -0.1,-2.89999 1.29999,-3.6 1.29999,-0.60001 3,-0.10001 3.70001,1.19999 0.60001,1.30001 0.20001,2.9 -1.1,3.5 L 293.39999,184 c -0.5,0.2 -0.89999,0.3 -1.29998,0.3 z m 10,-4.69999 c -1,0 -2,-0.60001 -2.4,-1.5 -0.6,-1.30001 -0.1,-2.9 1.29999,-3.60001 1.29999,-0.60001 3,-0.10001 3.70001,1.2 0.60001,1.3 0.20001,2.89999 -1.1,3.5 l -0.20002,0.1 c -0.5,0.2 -0.89999,0.30001 -1.29998,0.30001 z"
             style="fill:#efb5b4;fill-opacity:1;fill-rule:nonzero;stroke:none"
             transform="matrix(0.08975311,-0.04395896,0.04431252,0.09047499,315.7943,27.879535)"
             clip-path="url(#clipPath1249)"
             id="path1335" />
          <path
             d="m 338.79999,225.89999 c -0.10001,0 -0.29999,0 -0.4,0 -1.5,-0.19999 -2.5,-1.6 -2.20001,-3.1 0.20001,-1.5 1.60001,-2.60001 3.10001,-2.4 1.5,0.2 2.5,1.5 2.29999,2.9 v 0.3 c -0.29999,1.3 -1.49997,2.3 -2.79999,2.3 z M 340.70001,215 c -0.20001,0 -0.29999,0 -0.5,-0.10001 -1.5,-0.3 -2.39999,-1.69999 -2.1,-3.19999 0.29998,-1.5 1.6,-2.5 3.20001,-2.2 1.39999,0.3 2.39999,1.60001 2.1,3 l -0.1,0.3 C 343.10001,214.10001 342,215 340.70001,215 Z m 2,-10.8 c -0.1,0 -0.29999,0 -0.39999,0 -1.5,-0.2 -2.5,-1.60001 -2.20001,-3.10001 0.29998,-1.5 1.79998,-2.60001 3.1,-2.39999 1.5,0.19999 2.5,1.5 2.29999,2.89999 v 0.3 C 345.10001,203.3 344,204.2 342.70001,204.2 Z m 1.9,-10.80001 c -0.10001,0 -0.29999,0 -0.4,0 -1.5,-0.19999 -2.5,-1.6 -2.20001,-3.1 0.20001,-1.5 1.79999,-2.60001 3.10001,-2.4 1.5,0.2 2.5,1.5 2.29998,2.9 v 0.3 c -0.39999,1.3 -1.5,2.3 -2.79998,2.3 z"
             style="fill:#efb5b4;fill-opacity:1;fill-rule:nonzero;stroke:none"
             transform="matrix(0.08975311,-0.04395896,0.04431252,0.09047499,315.7943,27.879535)"
             clip-path="url(#clipPath1250)"
             id="path1336" />
          <path
             d="m 385.10001,302.10001 c -0.29999,0 -0.60001,0 -0.79999,-0.10001 l -0.29999,-0.10001 c -1.39999,-0.5 -2.10001,-2 -1.60001,-3.39999 0.5,-1.39999 2,-2.10001 3.4,-1.60001 1.39999,0.5 2.29999,2.10001 1.79999,3.5 -0.5,1 -1.4,1.70002 -2.5,1.70002 z m -10.4,-3.80002 c -0.29999,0 -0.6,0 -0.79999,-0.10001 l -0.29998,-0.1 c -1.4,-0.5 -2.10001,-2 -1.60001,-3.4 0.5,-1.39999 2,-2.1 3.39999,-1.6 1.4,0.5 2.29999,2.1 1.79999,3.5 -0.40002,1.00003 -1.40002,1.70001 -2.5,1.70001 z m -10.30002,-3.69998 c -0.29998,0 -0.6,0 -0.79998,-0.10001 l -0.29999,-0.10001 c -1.4,-0.5 -2.10001,-2 -1.60001,-3.39999 0.5,-1.39999 2,-2.10001 3.4,-1.60001 1.39999,0.5 2.29998,2.10001 1.79998,3.5 -0.39999,1 -1.39999,1.70002 -2.5,1.70002 z m -10.29998,-3.70002 c -0.29999,0 -0.60001,0 -0.79999,-0.1 l -0.29999,-0.10001 c -1.39999,-0.5 -2.10001,-2 -1.60001,-3.39999 0.5,-1.4 2,-2.10001 3.4,-1.60001 1.39999,0.5 2.29999,2.10001 1.79999,3.5 -0.5,0.90003 -1.5,1.70001 -2.5,1.70001 z"
             style="fill:#efb5b4;fill-opacity:1;fill-rule:nonzero;stroke:none"
             transform="matrix(0.08975311,-0.04395896,0.04431252,0.09047499,315.7943,27.879535)"
             clip-path="url(#clipPath1251)"
             id="path1337" />
          <path
             d="m 329,365.39999 c -0.60001,0 -1.20001,-0.20001 -1.70001,-0.6 -1.20001,-0.9 -1.29999,-2.60001 -0.4,-3.79999 0.9,-1.10001 2.70002,-1.5 3.9,-0.5 1.20001,0.89999 1.39999,2.5 0.5,3.70001 l -0.20001,0.20001 C 330.5,365.10001 329.70001,365.39999 329,365.39999 Z m 6.89999,-8.5 c -0.6,0 -1.20001,-0.20001 -1.70001,-0.6 -1.20001,-0.9 -1.29999,-2.60001 -0.39999,-3.79999 0.89999,-1.20001 2.70001,-1.5 3.89999,-0.5 1.20001,0.89999 1.4,2.5 0.5,3.70001 l -0.20001,0.20001 c -0.49997,0.59998 -1.29996,0.99997 -2.09998,0.99997 z m 6.9,-8.6 c -0.60001,0 -1.20001,-0.20001 -1.70001,-0.60001 -1.10001,-1 -1.29999,-2.70001 -0.29999,-3.79999 1,-1.1 2.70001,-1.39999 3.89999,-0.39999 1.10001,1 1.4,2.5 0.4,3.70001 l -0.20002,0.20001 c -0.59997,0.59998 -1.29995,0.89997 -2.09997,0.89997 z m 7,-8.5 c -0.60001,0 -1.20001,-0.20001 -1.70001,-0.60001 -1.20002,-0.89999 -1.29999,-2.6 -0.4,-3.79999 0.9,-1.19998 2.70001,-1.5 3.9,-0.5 1.20001,0.9 1.39999,2.5 0.5,3.70002 l -0.20002,0.20001 c -0.59997,0.69998 -1.29995,0.99997 -2.09997,0.99997 z"
             style="fill:#efb5b4;fill-opacity:1;fill-rule:nonzero;stroke:none"
             transform="matrix(0.08975311,-0.04395896,0.04431252,0.09047499,315.7943,27.879535)"
             clip-path="url(#clipPath1252)"
             id="path1338" />
          <path
             d="m 327.70001,445.5 c -0.89999,0 -1.79999,-0.5 -2.29999,-1.29999 -0.79998,-1.29999 -0.39999,-3 0.9,-3.79999 1.29999,-0.79998 2.89999,-0.39999 3.6,0.79999 l 0.10001,0.20001 c 0.79999,1.29999 0.29999,2.9 -0.89999,3.70002 -0.50003,0.29995 -0.90003,0.39996 -1.40003,0.39996 z m -5.5,-9.5 c -0.89999,0 -1.79999,-0.5 -2.29999,-1.29999 -0.79998,-1.29999 -0.39999,-3 0.9,-3.79999 1.29999,-0.79998 2.89999,-0.39999 3.6,0.79999 l 0.10001,0.20001 c 0.79999,1.29999 0.29999,2.9 -0.89999,3.70002 C 323.10001,435.89999 322.60001,436 322.20001,436 Z m -5.6,-9.5 c -0.9,0 -1.79999,-0.5 -2.29999,-1.29999 -0.79999,-1.29999 -0.4,-3 0.89999,-3.79999 1.29999,-0.79998 2.9,-0.39999 3.60001,0.79999 l 0.1,0.20001 c 0.79999,1.29999 0.29999,2.9 -0.89999,3.70002 C 317.5,426.39999 317.10001,426.5 316.60001,426.5 Z m -5.5,-9.5 c -0.9,0 -1.79999,-0.5 -2.29999,-1.29999 -0.79999,-1.29999 -0.4,-3 0.89999,-3.79999 1.29999,-0.79998 2.9,-0.39999 3.60001,0.79999 l 0.1,0.20001 c 0.79999,1.29999 0.29999,2.9 -0.89999,3.70002 C 312,416.89999 311.5,417 311.10001,417 Z"
             style="fill:#efb5b4;fill-opacity:1;fill-rule:nonzero;stroke:none"
             transform="matrix(0.08975311,-0.04395896,0.04431252,0.09047499,315.7943,27.879535)"
             clip-path="url(#clipPath1253)"
             id="path1339" />
          <path
             d="m 382.79999,228.5 c 0,0 35.1,-79.89999 112.5,-54.3 -21.09998,72 -112.5,54.3 -112.5,54.3 z"
             style="fill:#deb867;fill-opacity:1;fill-rule:nonzero;stroke:none"
             transform="matrix(0.08975311,-0.04395896,0.04431252,0.09047499,315.7943,27.879535)"
             clip-path="url(#clipPath1254)"
             id="path1340" />
          <path
             d="m 406.20001,231.7 c -13.70001,0 -23.39999,-1.80001 -23.70001,-1.80001 -0.39999,-0.1 -0.70001,-0.3 -0.89999,-0.69999 -0.20002,-0.4 -0.20002,-0.80001 0,-1.2 0.39999,-0.8 36.39999,-80.7 114.1,-55 0.70001,0.2 1.10001,1 0.9,1.7 -14.4,49 -61.4,57 -90.4,57 z m -21.40002,-4.2 c 12.5,1.89999 89.29999,10.8 108.89999,-52.39999 C 425.20001,153.3 390.20001,216.5 384.79999,227.5 Z"
             style="fill:#a49180;fill-opacity:1;fill-rule:nonzero;stroke:none"
             transform="matrix(0.08975311,-0.04395896,0.04431252,0.09047499,315.7943,27.879535)"
             clip-path="url(#clipPath1255)"
             id="path1341" />
          <path
             d="m 395.79999,222.39999 c 0,0 54.39999,-53.3 81.20001,-36.19999 -2.79999,32.1 -81.20001,36.19999 -81.20001,36.19999 z"
             style="fill:#eeddcf;fill-opacity:1;fill-rule:nonzero;stroke:none"
             transform="matrix(0.08975311,-0.04395896,0.04431252,0.09047499,315.7943,27.879535)"
             clip-path="url(#clipPath1256)"
             id="path1342" />
          <path
             d="m 413.89999,215.7 c -1,0 -2,-0.60001 -2.5,-1.60001 -0.6,-1.39999 0,-2.89999 1.4,-3.5 1.39999,-0.60001 3.1,0 3.70001,1.3 0.60001,1.4 0.10001,2.9 -1.29999,3.5 L 414.90002,215.5 c -0.20001,0.10001 -0.60003,0.2 -1.00003,0.2 z M 424,211.3 c -1,0 -2,-0.6 -2.5,-1.69999 -0.60001,-1.4 0.10001,-2.9 1.39999,-3.5 1.4,-0.60001 3.10001,0 3.60001,1.39999 0.60001,1.39999 0.10001,2.89999 -1.29999,3.5 l -0.29999,0.10001 C 424.70001,211.2 424.39999,211.3 424,211.3 Z m 10.10001,-4.40001 c -1,0 -2,-0.6 -2.5,-1.6 -0.60001,-1.4 0,-2.9 1.39999,-3.5 1.29999,-0.60001 3.10001,0 3.60001,1.3 0.6,1.39999 0.1,2.89999 -1.29999,3.5 L 435.10001,206.7 c -0.30002,0.1 -0.60001,0.19999 -1,0.19999 z m 10.1,-4.39999 c -1,0 -2,-0.60001 -2.39999,-1.60001 -0.60001,-1.39999 0,-2.89999 1.29999,-3.6 1.29998,-0.60001 3.1,-0.10001 3.70001,1.3 0.6,1.3 0.1,2.89999 -1.20001,3.5 L 445.39999,202.2 c -0.39999,0.19999 -0.79998,0.3 -1.19998,0.3 z m 10.09998,-4.39999 c -1,0 -2,-0.60001 -2.5,-1.60001 -0.60001,-1.39999 0,-2.89999 1.39999,-3.5 1.4,-0.60001 3.10001,0 3.70001,1.3 0.60001,1.4 0.10001,2.9 -1.29998,3.5 l -0.29999,0.10001 c -0.30002,0.2 -0.70001,0.2 -1.00003,0.2 z m 10.1,-4.40001 c -1,0 -2,-0.60001 -2.5,-1.60001 -0.6,-1.39999 0,-2.89999 1.4,-3.5 1.29999,-0.60001 3.1,0 3.6,1.3 0.60001,1.4 0.10001,2.9 -1.29998,3.5 L 465.39999,193.5 c -0.29998,0.2 -0.69998,0.2 -1,0.2 z"
             style="fill:#deb867;fill-opacity:1;fill-rule:nonzero;stroke:none"
             transform="matrix(0.08975311,-0.04395896,0.04431252,0.09047499,315.7943,27.879535)"
             clip-path="url(#clipPath1257)"
             id="path1343" />
        </g>
      </g>
    </g>
  </g>
</svg>
